<?xml version="1.0" encoding="UTF-8"?><svg id="Layer_2" xmlns="http://www.w3.org/2000/svg" viewBox="0 0 564.92 93.34"><defs><style>.cls-1{fill:#26ffbe;}</style></defs><g id="Layer_1-2"><path class="cls-1" d="M67.24,0h25c1.65.01,2.72,1.76,1.96,3.23l-26.95,52.69c.36,1.73,2.77,1.88,3.35.22,0,0,24-29.94,35.33-47.51,3.45-5.36,9.37-8.62,15.74-8.62h20.81c1.73,0,2.98,1.65,2.51,3.31l-.64,88.12c-.32,1.13-1.34,1.91-2.51,1.91h-52.5c-1.92,0-3.19-2.01-2.35-3.74l24.6-39.17c.92-1.91-1.73-3.49-2.98-1.78,0,0-21.04,22.34-33.42,36.41-4.63,5.26-11.3,8.28-18.31,8.28h-15.5c-1.69,0-2.93-1.57-2.54-3.21l17.83-42.78c.48-2.03-2.36-3.03-3.26-1.16l-27.71,45.67c-.43.9-1.35,1.48-2.35,1.48H2.61c-1.73,0-2.98-1.65-2.51-3.31L63.71,3.29l1.37-2.15,2.15-1.13ZM148.66,61.75c0-4.7.81-8.99,2.44-12.87,1.63-3.87,3.93-7.18,6.89-9.93,2.97-2.75,6.55-4.89,10.75-6.41,4.2-1.52,8.86-2.28,14.01-2.28s9.86.76,13.95,2.28c4.09,1.52,7.55,3.69,10.37,6.51,2.82,2.82,4.98,6.21,6.46,10.15,1.48,3.95,2.23,8.34,2.23,13.19v4.34h-42.56c.58,2.97,1.66,5.25,3.26,6.84,1.59,1.59,3.65,2.39,6.19,2.39,3.62,0,6.26-1.63,7.93-4.89h25.08c-1.88,6.88-5.7,12.31-11.45,16.28-5.75,3.98-12.9,5.97-21.44,5.97-5.14,0-9.81-.76-14.01-2.28-4.2-1.52-7.78-3.65-10.75-6.41-2.97-2.75-5.27-6.06-6.89-9.93-1.63-3.87-2.44-8.2-2.44-12.97ZM192.2,56.86c-.58-2.97-1.67-5.25-3.26-6.84-1.59-1.59-3.66-2.39-6.19-2.39s-4.61.8-6.24,2.39c-1.63,1.59-2.73,3.87-3.31,6.84h19ZM431.41,61.75c0-4.7.81-8.99,2.44-12.87,1.63-3.87,3.93-7.18,6.89-9.93,2.97-2.75,6.55-4.89,10.75-6.41,4.2-1.52,8.86-2.28,14.01-2.28s9.86.76,13.95,2.28c4.09,1.52,7.55,3.69,10.37,6.51,2.82,2.82,4.98,6.21,6.46,10.15,1.48,3.95,2.23,8.34,2.23,13.19v4.34h-42.56c.58,2.97,1.66,5.25,3.26,6.84,1.59,1.59,3.65,2.39,6.19,2.39,3.62,0,6.26-1.63,7.93-4.89h25.08c-1.88,6.88-5.7,12.31-11.45,16.28-5.75,3.98-12.9,5.97-21.44,5.97-5.14,0-9.81-.76-14.01-2.28-4.2-1.52-7.78-3.65-10.75-6.41-2.97-2.75-5.27-6.06-6.89-9.93-1.63-3.87-2.44-8.2-2.44-12.97ZM474.94,56.86c-.58-2.97-1.67-5.25-3.26-6.84-1.59-1.59-3.66-2.39-6.19-2.39s-4.61.8-6.24,2.39c-1.63,1.59-2.73,3.87-3.31,6.84h19ZM240.88,70.76c1.07,0,2.01.75,2.21,1.8.32,1.69.98,2.98,1.96,3.85,1.3,1.16,3.08,1.74,5.32,1.74,1.81,0,3.22-.33,4.23-.98,1.01-.65,1.52-1.56,1.52-2.71,0-1.66-1.14-2.8-3.42-3.42-2.28-.61-5.3-1.21-9.07-1.79-2.32-.36-4.83-.83-7.55-1.41-2.71-.58-5.25-1.56-7.6-2.93-2.35-1.37-4.31-3.2-5.86-5.48-1.56-2.28-2.33-5.27-2.33-8.96,0-6.15,2.39-11.06,7.17-14.71,4.78-3.65,12.05-5.48,21.82-5.48s16.85,1.88,21.66,5.65c4.12,3.22,6.71,7.77,7.78,13.63.29,1.6-.93,3.08-2.55,3.08h-18.29c-1.19,0-2.23-.82-2.51-1.98-.83-3.46-2.97-5.19-6.42-5.19-1.74,0-2.95.36-3.64,1.09-.69.72-1.03,1.52-1.03,2.39,0,1.81,1.09,3.04,3.26,3.69,2.17.65,5.07,1.27,8.69,1.85,2.39.29,4.99.74,7.82,1.36,2.82.62,5.43,1.57,7.82,2.88,2.39,1.3,4.38,3.11,5.97,5.43,1.59,2.32,2.39,5.39,2.39,9.23,0,6.59-2.57,11.56-7.71,14.93-5.14,3.37-12.49,5.05-22.04,5.05-10.21,0-17.82-1.9-22.85-5.7-4.44-3.36-7.09-8.14-7.95-14.35-.19-1.34.89-2.53,2.25-2.53h18.97ZM365.78,85.09c0-6.48,3.21-12.54,8.57-16.18l38.61-26.2c.88-.78.17-2.22-.98-2.01l-44.14,18.22c-1.07.2-2.06-.63-2.06-1.71v-24.65c0-.96.78-1.74,1.74-1.74h58.25c.96,0,1.74.78,1.74,1.74v16.01c0,.48-.2.93-.54,1.26l-43.58,30.33c-.85.81-.11,2.22,1.04,1.98l40.88-15.16c1.08-.23,2.1.6,2.1,1.71v22.93c0,.96-.78,1.74-1.74,1.74h-58.14c-.96,0-1.74-.78-1.74-1.74v-6.51ZM556.66,93.34c-6.48,0-12.54-3.21-16.18-8.57l-26.2-38.61c-.78-.88-2.22-.17-2.01.98l18.22,43.81c.2,1.07-.63,2.06-1.71,2.06h-24.65c-.96,0-1.74-.78-1.74-1.74v-58.52c0-.96.78-1.74,1.74-1.74h16.01c.48,0,.94.2,1.26.54l30.33,44.19c.81.85,2.22.11,1.98-1.04l-15.16-41.9c-.23-1.08.6-2.1,1.71-2.1h22.93c.96,0,1.74.78,1.74,1.74v59.16c0,.96-.78,1.74-1.74,1.74h-6.51ZM344.42,30.81h17.12v11.47c0,.94-.77,1.71-1.71,1.71h-15.41c-.94,0-1.71-.77-1.71-1.71v-9.76c0-.94.77-1.71,1.71-1.71ZM344.42,46.19h15.41c.94,0,1.71.77,1.71,1.71v43.73c0,.94-.77,1.71-1.71,1.71h-15.41c-.94,0-1.71-.77-1.71-1.71v-43.73c0-.94.77-1.71,1.71-1.71ZM299.08,46.64h-14.49c-.96,0-1.74-.78-1.74-1.74v-12.22c0-.96.78-1.74,1.74-1.74h52.38c.96,0,1.74.78,1.74,1.74v12.22c0,.96-.78,1.74-1.74,1.74h-14.58c-.96,0-1.74.78-1.74,1.74v43.21c0,.96-.78,1.74-1.74,1.74h-16.33c-.96,0-1.74-.78-1.74-1.74v-43.21c0-.96-.78-1.74-1.74-1.74Z"/></g></svg>