<svg id="Layer_1" data-name="Layer 1" xmlns="http://www.w3.org/2000/svg" viewBox="0 0 290 98"><defs><style>.cls-1{fill:#42c1ff;}.cls-2{fill:#fff;}.cls-3{opacity:0.9;}.cls-4{fill:#161a6e;}</style></defs><path class="cls-1" d="M8,26.57V67.82a4.14,4.14,0,0,0,2.08,3.59L45.78,92a4.16,4.16,0,0,0,4.15,0L85.66,71.41a4.15,4.15,0,0,0,2.07-3.59V26.57A4.15,4.15,0,0,0,85.66,23L49.93,2.35a4.16,4.16,0,0,0-4.15,0L10.06,23A4.14,4.14,0,0,0,8,26.57Z"/><path class="cls-2" d="M34.69,46.19h9.56c3.35,0,5-2.89,5-5.78s-1.57-5.58-5-5.58H37.74l-6.1-10.47c2.8,0,9.86,0,12.68,0,11.1,0,16.55,8.21,16.55,16.28A16.12,16.12,0,0,1,54,54.07L62.7,68l1.13,1.71H50l-7.17-13h-2Z"/><g class="cls-3"><path class="cls-4" d="M116.39,24.66h-4.21v8.91H105.8V3.74h11.68c5.63,0,10.92,4,10.92,10.46a10,10,0,0,1-5.63,9.24l6,10.13h-7.14Zm-4.21-6h5.3a4.32,4.32,0,0,0,4.58-4.5,4.32,4.32,0,0,0-4.58-4.49h-5.3Z"/><path class="cls-4" d="M152.59,24.87H137.68c.13,1.68,1.43,3.49,4.7,3.49a5.11,5.11,0,0,0,4.33-2.19l5.5.59c-.5,2.86-3.82,7.23-9.87,7.23-6.68,0-11-5.13-11-11.18,0-5.88,4.11-10.92,10.62-10.92s10.63,5.17,10.63,11.34Zm-14.91-4.33h8.57c-.13-1.59-1.72-3-4.29-3S137.81,18.91,137.68,20.54Z"/><path class="cls-4" d="M166.83,11.89a7.52,7.52,0,0,1,6.89,3.7l.37-3.28h6V33.57h-6l-.37-3.28a7.52,7.52,0,0,1-6.89,3.7c-6.09,0-10.42-5-10.42-11S160.74,11.89,166.83,11.89ZM167.92,28a4.9,4.9,0,0,0,5-5,4.93,4.93,0,0,0-5-5.08,5.06,5.06,0,1,0,0,10.12Z"/><path class="cls-4" d="M191.57,33.57h-6.35V3.74h6.35Z"/></g><path class="cls-4" d="M114.29,82.7c0,2.7-2.06,4.18-4.49,4.18h-2.48V91h-1.85V78.51h4.33C112.23,78.51,114.29,80,114.29,82.7Zm-1.83,0a2.36,2.36,0,0,0-2.66-2.45h-2.48v4.9h2.48A2.36,2.36,0,0,0,112.46,82.7Z"/><path class="cls-4" d="M115.22,86.56A4.75,4.75,0,1,1,120,91.19,4.63,4.63,0,0,1,115.22,86.56Zm7.67,0a2.92,2.92,0,0,0-5.83,0,2.92,2.92,0,0,0,5.83,0Z"/><path class="cls-4" d="M140,82.1,136.79,91h-1.92l-2.26-6.22L130.37,91h-1.92l-3.22-8.92h2l2.22,6.64,2.24-6.64h2l2.22,6.64,2.23-6.64Z"/><path class="cls-4" d="M149.61,87.12h-7.09a2.54,2.54,0,0,0,2.79,2.43,2.72,2.72,0,0,0,2.47-1.39l1.6.18a4.09,4.09,0,0,1-4.09,2.85,4.49,4.49,0,0,1-4.6-4.68,4.42,4.42,0,0,1,4.46-4.59,4.48,4.48,0,0,1,4.46,4.74Zm-7.09-1.28h5.24a2.65,2.65,0,0,0-5.24,0Z"/><path class="cls-4" d="M156.3,82.31,156,83.92a1.88,1.88,0,0,0-.92-.25c-1.27,0-1.88,1.36-1.88,3.14V91h-1.84V82.1h1.73l.09,1a2.65,2.65,0,0,1,2-1.22A1.63,1.63,0,0,1,156.3,82.31Z"/><path class="cls-4" d="M165.86,87.12h-7.08a2.53,2.53,0,0,0,2.79,2.43A2.7,2.7,0,0,0,164,88.16l1.61.18a4.1,4.1,0,0,1-4.09,2.85,4.49,4.49,0,0,1-4.6-4.68,4.42,4.42,0,0,1,4.46-4.59,4.47,4.47,0,0,1,4.45,4.74Zm-7.08-1.28H164a2.64,2.64,0,0,0-5.23,0Z"/><path class="cls-4" d="M171.85,81.92a3.66,3.66,0,0,1,3.38,2V77.8h1.85V91h-1.74l-.11-1.85a3.64,3.64,0,0,1-3.38,2,4.64,4.64,0,0,1,0-9.27Zm.3,7.53a2.89,2.89,0,1,0-2.94-2.89A2.86,2.86,0,0,0,172.15,89.45Z"/><path class="cls-4" d="M189.62,91.19a3.67,3.67,0,0,1-3.4-2L186.13,91h-1.74V77.8h1.83v6.13a3.69,3.69,0,0,1,3.4-2,4.64,4.64,0,0,1,0,9.27Zm-.3-7.52a2.89,2.89,0,1,0,2.93,2.89A2.86,2.86,0,0,0,189.32,83.67Z"/><path class="cls-4" d="M196.74,82.1l2.85,6.63,2.8-6.63h2l-5.57,13h-1.94L198.6,91l-3.84-8.9Z"/><path class="cls-4" d="M215.73,87h-2.47V91h-1.85V78.51H216a4.14,4.14,0,0,1,4.25,4.22,4.07,4.07,0,0,1-2.63,3.93L220.34,91h-2.08Zm-2.47-1.74H216a2.49,2.49,0,0,0,0-5h-2.73Z"/><path class="cls-4" d="M230.31,87.12h-7.08A2.52,2.52,0,0,0,226,89.55a2.71,2.71,0,0,0,2.47-1.39l1.6.18A4.09,4.09,0,0,1,226,91.19a4.48,4.48,0,0,1-4.59-4.68,4.42,4.42,0,0,1,4.45-4.59,4.48,4.48,0,0,1,4.46,4.74Zm-7.08-1.28h5.23a2.64,2.64,0,0,0-5.23,0Z"/><path class="cls-4" d="M236.3,81.92a3.66,3.66,0,0,1,3.38,2l.11-1.83h1.74V91h-1.74l-.11-1.85a3.64,3.64,0,0,1-3.38,2,4.64,4.64,0,0,1,0-9.27Zm.3,7.53a2.89,2.89,0,1,0-2.94-2.89A2.87,2.87,0,0,0,236.6,89.45Z"/><path class="cls-4" d="M245.56,91h-1.83V77.8h1.83Z"/><path class="cls-4" d="M256.33,82.7c0,2.7-2.07,4.18-4.5,4.18h-2.48V91H247.5V78.51h4.33C254.26,78.51,256.33,80,256.33,82.7Zm-1.84,0a2.36,2.36,0,0,0-2.66-2.45h-2.48v4.9h2.48A2.36,2.36,0,0,0,254.49,82.7Z"/><path class="cls-4" d="M257.26,86.56A4.75,4.75,0,1,1,262,91.19,4.62,4.62,0,0,1,257.26,86.56Zm7.66,0a2.92,2.92,0,0,0-5.83,0,2.92,2.92,0,0,0,5.83,0Z"/><path class="cls-4" d="M273.44,82.31l-.28,1.61a1.83,1.83,0,0,0-.91-.25c-1.27,0-1.89,1.36-1.89,3.14V91h-1.83V82.1h1.72l.09,1a2.69,2.69,0,0,1,2-1.22A1.63,1.63,0,0,1,273.44,82.31Z"/><path class="cls-4" d="M279.61,83.84h-1.9V91h-1.85V83.84h-1.33V82.1h1.33V79.46h1.85V82.1h1.9Z"/><path class="cls-1" d="M130.78,55.93c0,8.35-6,14.91-14.49,14.91H105.54V41h10.75C124.78,41,130.78,47.57,130.78,55.93Zm-6.34,0c0-6-3.74-9-8.15-9h-4.37V64.83h4.37C120.7,64.83,124.44,62,124.44,55.93Z"/><path class="cls-1" d="M154.39,62.14H139.47c.13,1.68,1.43,3.49,4.71,3.49a5.11,5.11,0,0,0,4.33-2.19L154,64c-.5,2.86-3.82,7.23-9.87,7.23-6.68,0-11-5.13-11-11.18,0-5.88,4.12-10.92,10.63-10.92s10.63,5.17,10.63,11.34Zm-14.92-4.33H148c-.12-1.59-1.72-3-4.28-3S139.6,56.18,139.47,57.81Z"/><path class="cls-1" d="M167.66,49.16a7.52,7.52,0,0,1,6.89,3.7l.37-3.28h6V70.84h-6l-.37-3.28a7.52,7.52,0,0,1-6.89,3.7c-6.09,0-10.42-5-10.42-11.05S161.57,49.16,167.66,49.16Zm1.09,16.09a5.06,5.06,0,0,0,0-10.12,5.06,5.06,0,1,0,0,10.12Z"/><path class="cls-1" d="M191.43,70.84h-6.34V41h6.34Z"/><path class="cls-1" d="M201.42,47v6.13H211v6h-9.54V70.84h-6.34V41h17.27v6Z"/><path class="cls-1" d="M223.68,70.84h-6.34V41h6.34Z"/><path class="cls-1" d="M227,60.21c0-6.09,4.67-11.05,11.51-11.05S250,54.12,250,60.21s-4.62,11.05-11.43,11.05S227,66.3,227,60.21Zm16.55,0a4.93,4.93,0,0,0-5-5.08,5.06,5.06,0,1,0,0,10.12A4.9,4.9,0,0,0,243.59,60.21Z"/><path class="cls-1" d="M287.24,49.58l-7.69,21.26H273L268.63,59l-4.29,11.89h-6.63L250,49.58h6.76L261,62.81l4.25-13.23H272l4.2,13.23,4.24-13.23Z"/></svg>