<?xml version="1.0" encoding="UTF-8"?><svg id="Layer_1" xmlns="http://www.w3.org/2000/svg" viewBox="0 0 263.71 79.48"><defs><style>.cls-1,.cls-2,.cls-3,.cls-4,.cls-5,.cls-6{fill:none;stroke-miterlimit:10;}.cls-1,.cls-2,.cls-4,.cls-5{stroke:#9fa4dd;stroke-width:.1px;}.cls-7{fill:#cdd2fc;}.cls-2{stroke-dasharray:2 1;}.cls-3{stroke-width:.12px;}.cls-3,.cls-6{stroke:#cdd2fc;}.cls-8{fill:#161a6e;}.cls-4{stroke-dasharray:2.09 1.05;}.cls-5{stroke-dasharray:2.16 1.08;}.cls-9{fill:#fff;}.cls-6{stroke-width:.4px;}.cls-10{fill:#42c1ff;}.cls-11{fill:#9fa4dd;}</style></defs><rect class="cls-11" x="110.54" y="16.59" width="1.65" height="7.82" transform="translate(222.73 41.01) rotate(180)"/><rect class="cls-11" x="236.64" y="16.59" width="1.65" height="7.82" transform="translate(474.92 41.01) rotate(180)"/><rect class="cls-11" x="196.71" y="16.59" width="1.65" height="7.82" transform="translate(395.07 41.01) rotate(180)"/><rect class="cls-11" x="133.39" y="16.59" width="2.75" height="7.82" transform="translate(269.54 41.01) rotate(180)"/><rect class="cls-11" x="221.23" y="16.59" width="2.75" height="7.82" transform="translate(445.21 41.01) rotate(180)"/><rect class="cls-11" x="159.59" y="16.59" width="4" height="7.82" transform="translate(323.18 41.01) rotate(180)"/><rect class="cls-7" x="77.69" y="66.74" width="9.8" height="5.71"/><rect class="cls-7" x="252.48" y="16.47" width="10" height="8"/><rect class="cls-11" x="252.48" y="12.45" width="10" height="4"/><rect class="cls-7" x="252.48" y="6.46" width="10" height="6"/><rect class="cls-7" x="1.4" y="16.47" width="10" height="8"/><rect class="cls-11" x="1.4" y="12.45" width="10" height="4"/><rect class="cls-7" x="1.4" y="6.46" width="10" height="6"/><rect class="cls-7" x="221.23" y="66.48" width="41.26" height="6"/><rect class="cls-11" x="252.52" y="62.66" width="9.96" height="4"/><rect class="cls-11" x="1.4" y="66.48" width="10" height="6"/><rect class="cls-7" x="1.37" y="62.66" width="9.96" height="4"/><rect class="cls-11" x="83.74" y="54.55" width="4" height="7.92" transform="translate(171.48 117.02) rotate(180)"/><rect class="cls-7" x="79.74" y="54.55" width="4" height="7.92" transform="translate(163.48 117.02) rotate(180)"/><rect class="cls-11" x="77.74" y="54.55" width="2" height="7.92" transform="translate(157.48 117.02) rotate(180)"/><rect class="cls-11" x="83.74" y="16.51" width="4" height="7.92" transform="translate(171.48 40.94) rotate(180)"/><rect class="cls-7" x="79.74" y="16.51" width="4" height="7.92" transform="translate(163.48 40.94) rotate(180)"/><rect class="cls-11" x="77.74" y="16.51" width="2" height="7.92" transform="translate(157.48 40.94) rotate(180)"/><rect class="cls-11" x="252.48" y="24.42" width="10" height="8" transform="translate(514.97 56.84) rotate(180)"/><rect class="cls-7" x="252.48" y="54.54" width="10" height="8" transform="translate(514.97 117.08) rotate(180)"/><rect class="cls-11" x="1.34" y="24.42" width="10" height="8" transform="translate(12.67 56.84) rotate(180)"/><rect class="cls-11" x="1.34" y="54.54" width="10" height="8" transform="translate(12.67 117.08) rotate(180)"/><rect class="cls-11" x="169.99" y="16.59" width="4" height="7.82" transform="translate(343.97 41.01) rotate(180)"/><rect class="cls-11" x="110.54" y="54.58" width="1.65" height="7.82" transform="translate(222.73 116.99) rotate(180)"/><rect class="cls-11" x="236.64" y="54.58" width="1.65" height="7.82" transform="translate(474.92 116.99) rotate(180)"/><rect class="cls-11" x="196.71" y="54.58" width="1.65" height="7.82" transform="translate(395.07 116.99) rotate(180)"/><rect class="cls-11" x="133.39" y="54.58" width="2.75" height="7.82" transform="translate(269.54 116.99) rotate(180)"/><rect class="cls-11" x="221.23" y="54.58" width="2.75" height="7.82" transform="translate(445.21 116.99) rotate(180)"/><rect class="cls-11" x="159.59" y="54.58" width="4" height="7.82" transform="translate(323.18 116.99) rotate(180)"/><rect class="cls-11" x="169.99" y="54.58" width="4" height="7.82" transform="translate(343.97 116.99) rotate(180)"/><path class="cls-8" d="M89.21,63.99v2.68h3.03v1.35h-3.03v2.94h3.88v1.35h-5.31v-9.67h5.31v1.35h-3.88Z"/><path class="cls-8" d="M101.3,68.27v4.05h-1.42v-3.42c0-1.66-.67-2.26-1.66-2.26-1.35,0-2.03,1.06-2.1,2.08v3.6h-1.42v-6.89h1.34l.07,1.1c.65-.69,1.54-1.24,2.66-1.24,1.62,0,2.53,1.06,2.53,2.98Z"/><path class="cls-8" d="M108.94,66.69l-.71-.1c.22.37.35.8.35,1.28,0,1.5-1.25,2.59-2.89,2.59-.35,0-.69-.06-.99-.15-.19.1-.29.22-.29.38,0,.34.48.42,1.24.42,2.13,0,3.27.93,3.27,2.24,0,1.44-1.46,2.23-3.05,2.23s-3.05-.79-3.05-2.23c0-.74.38-1.2.86-1.5-.37-.23-.61-.54-.61-.91,0-.49.4-.85.8-1.04-.64-.46-1.05-1.19-1.05-2.03,0-1.51,1.25-2.59,2.87-2.59.52,0,1,.11,1.4.3l1.84-.16v1.27ZM107.24,67.88c0-.82-.7-1.4-1.54-1.4s-1.53.59-1.53,1.4.7,1.39,1.53,1.39,1.54-.59,1.54-1.39ZM105.25,72.3c-.08,0-.18,0-.27-.01-.37.18-.8.57-.8,1.04,0,.68.68,1.08,1.7,1.08s1.7-.34,1.7-1.02c0-.79-.91-1.08-2.33-1.08Z"/><path class="cls-8" d="M110.22,63.6c0-.42.34-.76.76-.76s.76.34.76.76-.34.76-.76.76-.76-.34-.76-.76ZM111.69,72.32h-1.42v-6.89h1.42v6.89Z"/><path class="cls-8" d="M120.1,68.27v4.05h-1.42v-3.42c0-1.66-.67-2.26-1.66-2.26-1.35,0-2.03,1.06-2.1,2.08v3.6h-1.42v-6.89h1.34l.07,1.1c.65-.69,1.54-1.24,2.66-1.24,1.62,0,2.54,1.06,2.54,2.98Z"/><path class="cls-8" d="M128.25,69.31h-5.48c.04,1.06.83,1.88,2.15,1.88.99,0,1.62-.54,1.91-1.08l1.24.14c-.23.95-1.31,2.21-3.16,2.21-2.1,0-3.56-1.57-3.56-3.62,0-1.92,1.38-3.54,3.45-3.54s3.45,1.7,3.45,3.66v.35ZM122.77,68.31h4.05c-.06-.93-.82-1.76-2.02-1.76s-1.97.79-2.03,1.76Z"/><path class="cls-8" d="M136.32,69.31h-5.48c.04,1.06.83,1.88,2.15,1.88,1,0,1.62-.54,1.91-1.08l1.24.14c-.23.95-1.31,2.21-3.16,2.21-2.1,0-3.56-1.57-3.56-3.62,0-1.92,1.38-3.54,3.45-3.54s3.45,1.7,3.45,3.66v.35ZM130.84,68.31h4.05c-.05-.93-.82-1.76-2.02-1.76s-1.98.79-2.03,1.76Z"/><path class="cls-8" d="M141.5,65.59l-.22,1.24c-.14-.08-.41-.19-.71-.19-.98,0-1.46,1.05-1.46,2.43v3.26h-1.42v-6.89h1.34l.07.8c.44-.56.95-.94,1.55-.94.41,0,.7.16.85.3Z"/><path class="cls-8" d="M142.64,63.6c0-.42.34-.76.76-.76s.76.34.76.76-.34.76-.76.76-.76-.34-.76-.76ZM144.11,72.32h-1.42v-6.89h1.42v6.89Z"/><path class="cls-8" d="M152.52,68.27v4.05h-1.42v-3.42c0-1.66-.67-2.26-1.66-2.26-1.35,0-2.03,1.06-2.1,2.08v3.6h-1.42v-6.89h1.34l.07,1.1c.65-.69,1.54-1.24,2.66-1.24,1.62,0,2.53,1.06,2.53,2.98Z"/><path class="cls-8" d="M160.16,66.69l-.71-.1c.22.37.35.8.35,1.28,0,1.5-1.25,2.59-2.89,2.59-.35,0-.69-.06-.99-.15-.19.1-.29.22-.29.38,0,.34.48.42,1.24.42,2.13,0,3.27.93,3.27,2.24,0,1.44-1.46,2.23-3.05,2.23s-3.05-.79-3.05-2.23c0-.74.38-1.2.86-1.5-.37-.23-.61-.54-.61-.91,0-.49.4-.85.8-1.04-.64-.46-1.05-1.19-1.05-2.03,0-1.51,1.25-2.59,2.87-2.59.52,0,1,.11,1.4.3l1.84-.16v1.27ZM158.46,67.88c0-.82-.7-1.4-1.54-1.4s-1.53.59-1.53,1.4.7,1.39,1.53,1.39,1.54-.59,1.54-1.39ZM156.47,72.3c-.08,0-.18,0-.27-.01-.37.18-.8.57-.8,1.04,0,.68.68,1.08,1.7,1.08s1.7-.34,1.7-1.02c0-.79-.91-1.08-2.33-1.08Z"/><path class="cls-8" d="M169.57,72.45c-2.36,0-3.83-1.31-3.83-4.2v-5.61h1.43v5.61c0,2.08.91,2.85,2.4,2.85s2.4-.76,2.4-2.85v-5.61h1.42v5.61c0,2.89-1.47,4.2-3.81,4.2Z"/><path class="cls-8" d="M181.5,68.27v4.05h-1.42v-3.42c0-1.66-.67-2.26-1.66-2.26-1.35,0-2.03,1.06-2.1,2.08v3.6h-1.42v-6.89h1.34l.07,1.1c.65-.69,1.54-1.24,2.66-1.24,1.62,0,2.53,1.06,2.53,2.98Z"/><path class="cls-8" d="M183.07,63.6c0-.42.34-.76.76-.76s.76.34.76.76-.34.76-.76.76-.76-.34-.76-.76ZM184.54,72.32h-1.42v-6.89h1.42v6.89Z"/><path class="cls-8" d="M189.68,66.77h-1.47v5.54h-1.43v-5.54h-1.02v-1.35h1.02v-2.04h1.43v2.04h1.47v1.35Z"/><path class="cls-8" d="M200.58,70.97v1.35h-5.37v-9.67h1.42v8.32h3.95Z"/><path class="cls-8" d="M207.48,70.97v1.35h-5.37v-9.67h1.42v8.32h3.95Z"/><path class="cls-8" d="M215.61,65.88c0,2.08-1.6,3.23-3.48,3.23h-1.92v3.2h-1.43v-9.67h3.35c1.88,0,3.48,1.14,3.48,3.24ZM214.19,65.88c0-1.27-.87-1.89-2.06-1.89h-1.92v3.79h1.92c1.19,0,2.06-.63,2.06-1.89Z"/><rect class="cls-10" x="18.22" y="13.13" width="52.85" height="52.85" rx="10.4" ry="10.4" transform="translate(-14.89 43.16) rotate(-45)"/><rect class="cls-8" x="17.51" y="12.42" width="54.27" height="54.27" rx="10.68" ry="10.68"/><path class="cls-9" d="M24.2,30.14v18.82c0,1.48.79,2.85,2.08,3.6l16.3,9.41c1.28.74,2.87.74,4.15,0l16.3-9.41c1.28-.74,2.08-2.11,2.08-3.6v-18.82c0-1.48-.79-2.85-2.08-3.6l-16.3-9.41c-1.28-.74-2.87-.74-4.15,0l-16.3,9.41c-1.28.74-2.08,2.11-2.08,3.6Z"/><path class="cls-8" d="M35.95,38.92h6.33c2.22,0,3.3-1.91,3.3-3.83s-1.04-3.7-3.3-3.7h-4.31l-4.04-6.93c1.85,0,6.53,0,8.39.02,7.35,0,10.96,5.43,10.96,10.78-.04,3.48-1.52,6.83-4.52,8.87l5.73,9.2.75,1.13h-9.18l-4.75-8.63h-1.31l-4.04-6.92Z"/><path class="cls-8" d="M98.43,45.51h-4.23v8.96h-6.42v-30h11.75c5.66,0,10.99,3.97,10.99,10.52,0,4.39-2.37,7.65-5.66,9.29l6.04,10.18h-7.18l-5.28-8.96ZM94.2,39.51h5.32c2.58,0,4.61-1.69,4.61-4.52s-2.03-4.52-4.61-4.52h-5.32v9.04Z"/><path class="cls-8" d="M133.43,45.36h-14.85c.13,1.67,1.42,3.47,4.68,3.47,2.05,0,3.51-1,4.31-2.18l5.48.59c-.5,2.84-3.81,7.19-9.83,7.19-6.65,0-10.96-5.1-10.96-11.13s4.1-10.87,10.58-10.87,10.58,5.14,10.58,11.29v1.63ZM118.59,41.05h8.53c-.13-1.59-1.71-3.01-4.27-3.01s-4.14,1.38-4.27,3.01Z"/><path class="cls-8" d="M146.56,32.44c3.35,0,5.86,1.67,6.86,3.68l.38-3.73h5.94v22.1h-5.94l-.38-3.73c-1,2.01-3.51,3.68-6.86,3.68-6.07,0-10.37-4.93-10.37-11s4.31-11,10.37-11ZM147.64,48.46c3.05,0,5.02-2.3,5.02-5.02s-1.97-5.06-5.02-5.06-5.14,2.34-5.14,5.06,2.05,5.02,5.14,5.02Z"/><path class="cls-8" d="M170.03,54.47h-6.38v-30h6.38v30Z"/><path class="cls-10" d="M196.77,34.99c0,6.59-5.32,10.48-11.15,10.48h-5.16v9h-6.42v-30h11.58c5.83,0,11.15,3.89,11.15,10.52ZM190.38,34.99c0-2.87-2.03-4.52-4.77-4.52h-5.16v9h5.16c2.75,0,4.77-1.61,4.77-4.48Z"/><path class="cls-10" d="M198.43,43.44c0-6.06,4.64-11,11.46-11s11.38,4.94,11.38,11-4.6,11-11.38,11-11.46-4.93-11.46-11ZM214.91,43.44c0-2.72-1.97-5.06-5.02-5.06s-5.14,2.34-5.14,5.06,2.05,5.02,5.14,5.02,5.02-2.3,5.02-5.02Z"/><path class="cls-10" d="M236.68,32.97v5.71c-.47-.26-1.5-.59-2.22-.59-2.43,0-4,2.26-4,7.24v9.22h-6.43v-22.08h6.05l.3,2.05c1.32-1.49,2.26-2.49,3.92-2.49,1.06,0,2.36.89,2.39.95Z"/><path class="cls-10" d="M252.52,38.86h-4.01v15.17h-2.64c-2.01,0-3.65-1.63-3.65-3.65v-11.52h-3.9v-6.47h3.9v-4.62h6.29v4.62h4.01v6.47Z"/><path class="cls-10" d="M252.52,54.55h-6.04c-2.35,0-4.26-1.91-4.26-4.26v-4.06h6.28v.75c0,.9.73,1.62,1.62,1.62h2.39v5.94Z"/><line class="cls-1" x1="65.1" y1="6.48" x2="65.1" y2="7.53"/><line class="cls-4" x1="65.1" y1="8.57" x2="65.1" y2="74.01"/><line class="cls-1" x1="65.1" y1="74.54" x2="65.1" y2="75.59"/><line class="cls-1" x1="24.13" y1="6.48" x2="24.13" y2="7.53"/><line class="cls-4" x1="24.13" y1="8.57" x2="24.13" y2="74.01"/><line class="cls-1" x1="24.13" y1="74.54" x2="24.13" y2="75.59"/><line class="cls-1" x1="17.58" y1="6.48" x2="17.58" y2="7.53"/><line class="cls-4" x1="17.58" y1="8.57" x2="17.58" y2="74.01"/><line class="cls-1" x1="17.58" y1="74.54" x2="17.58" y2="75.59"/><line class="cls-1" x1="77.68" y1="6.48" x2="77.68" y2="7.53"/><line class="cls-4" x1="77.68" y1="8.57" x2="77.68" y2="74.01"/><line class="cls-1" x1="77.68" y1="74.54" x2="77.68" y2="75.59"/><line class="cls-1" x1="71.68" y1="6.48" x2="71.68" y2="7.53"/><line class="cls-4" x1="71.68" y1="8.57" x2="71.68" y2="74.01"/><line class="cls-1" x1="71.68" y1="74.54" x2="71.68" y2="75.59"/><line class="cls-1" x1="79.74" y1="6.48" x2="79.74" y2="7.53"/><line class="cls-4" x1="79.74" y1="8.57" x2="79.74" y2="74.01"/><line class="cls-1" x1="79.74" y1="74.54" x2="79.74" y2="75.59"/><line class="cls-1" x1="83.74" y1="6.48" x2="83.74" y2="7.53"/><line class="cls-4" x1="83.74" y1="8.57" x2="83.74" y2="74.01"/><line class="cls-1" x1="83.74" y1="74.54" x2="83.74" y2="75.59"/><line class="cls-1" x1="87.78" y1="6.48" x2="87.78" y2="7.53"/><line class="cls-4" x1="87.78" y1="8.57" x2="87.78" y2="74.01"/><line class="cls-1" x1="87.78" y1="74.54" x2="87.78" y2="75.59"/><line class="cls-1" x1="110.58" y1="6.48" x2="110.58" y2="7.53"/><line class="cls-5" x1="110.58" y1="8.61" x2="110.58" y2="59.96"/><line class="cls-1" x1="110.58" y1="60.5" x2="110.58" y2="61.55"/><line class="cls-1" x1="112.19" y1="6.48" x2="112.19" y2="7.53"/><line class="cls-5" x1="112.19" y1="8.61" x2="112.19" y2="59.96"/><line class="cls-1" x1="112.19" y1="60.5" x2="112.19" y2="61.55"/><line class="cls-1" x1="133.44" y1="6.48" x2="133.44" y2="7.53"/><line class="cls-5" x1="133.44" y1="8.61" x2="133.44" y2="59.96"/><line class="cls-1" x1="133.44" y1="60.5" x2="133.44" y2="61.55"/><line class="cls-1" x1="136.19" y1="6.48" x2="136.19" y2="7.53"/><line class="cls-5" x1="136.19" y1="8.61" x2="136.19" y2="59.96"/><line class="cls-1" x1="136.19" y1="60.5" x2="136.19" y2="61.55"/><line class="cls-1" x1="159.58" y1="6.48" x2="159.58" y2="7.53"/><line class="cls-5" x1="159.58" y1="8.61" x2="159.58" y2="59.96"/><line class="cls-1" x1="159.58" y1="60.5" x2="159.58" y2="61.55"/><line class="cls-1" x1="163.65" y1="6.48" x2="163.65" y2="7.53"/><line class="cls-5" x1="163.65" y1="8.61" x2="163.65" y2="59.96"/><line class="cls-1" x1="163.65" y1="60.5" x2="163.65" y2="61.55"/><line class="cls-1" x1="170.01" y1="6.48" x2="170.01" y2="7.53"/><line class="cls-5" x1="170.01" y1="8.61" x2="170.01" y2="59.96"/><line class="cls-1" x1="170.01" y1="60.5" x2="170.01" y2="61.55"/><line class="cls-1" x1="174" y1="6.48" x2="174" y2="7.53"/><line class="cls-5" x1="174" y1="8.61" x2="174" y2="59.96"/><line class="cls-1" x1="174" y1="60.5" x2="174" y2="61.55"/><line class="cls-1" x1="196.75" y1="6.48" x2="196.75" y2="7.53"/><line class="cls-5" x1="196.75" y1="8.61" x2="196.75" y2="59.96"/><line class="cls-1" x1="196.75" y1="60.5" x2="196.75" y2="61.55"/><line class="cls-1" x1="198.39" y1="6.48" x2="198.39" y2="7.53"/><line class="cls-5" x1="198.39" y1="8.61" x2="198.39" y2="59.96"/><line class="cls-1" x1="198.39" y1="60.5" x2="198.39" y2="61.55"/><line class="cls-1" x1="221.28" y1="6.48" x2="221.28" y2="7.53"/><line class="cls-4" x1="221.28" y1="8.57" x2="221.28" y2="74.01"/><line class="cls-1" x1="221.28" y1="74.54" x2="221.28" y2="75.59"/><line class="cls-1" x1="224.02" y1="6.48" x2="224.02" y2="7.53"/><line class="cls-4" x1="224.02" y1="8.57" x2="224.02" y2="74.01"/><line class="cls-1" x1="224.02" y1="74.54" x2="224.02" y2="75.59"/><line class="cls-1" x1="236.68" y1="6.48" x2="236.68" y2="7.53"/><line class="cls-4" x1="236.68" y1="8.57" x2="236.68" y2="74.01"/><line class="cls-1" x1="236.68" y1="74.54" x2="236.68" y2="75.59"/><line class="cls-1" x1="238.33" y1="6.48" x2="238.33" y2="7.53"/><line class="cls-4" x1="238.33" y1="8.57" x2="238.33" y2="74.01"/><line class="cls-1" x1="238.33" y1="74.54" x2="238.33" y2="75.59"/><line class="cls-1" x1="252.5" y1="6.48" x2="252.5" y2="7.53"/><line class="cls-4" x1="252.5" y1="8.57" x2="252.5" y2="74.01"/><line class="cls-1" x1="252.5" y1="74.54" x2="252.5" y2="75.59"/><line class="cls-1" x1="11.4" y1="6.48" x2="11.4" y2="7.53"/><line class="cls-4" x1="11.4" y1="8.57" x2="11.4" y2="74.01"/><line class="cls-1" x1="11.4" y1="74.54" x2="11.4" y2="75.59"/><circle class="cls-6" cx="246.82" cy="50.22" r="4.39"/><circle class="cls-3" cx="250.13" cy="47.31" r="1.31"/><line class="cls-2" x1="1.4" y1="16.59" x2="262.45" y2="16.59"/><line class="cls-2" x1="1.4" y1="24.51" x2="262.45" y2="24.51"/><line class="cls-2" x1="1.4" y1="54.55" x2="262.45" y2="54.55"/><line class="cls-2" x1="1.37" y1="62.55" x2="262.45" y2="62.55"/><line class="cls-2" x1="1.23" y1="72.5" x2="262.45" y2="72.5"/><line class="cls-2" x1="1.23" y1="12.42" x2="262.45" y2="12.42"/></svg>