<?xml version="1.0" encoding="UTF-8"?><svg id="Layer_1" xmlns="http://www.w3.org/2000/svg" viewBox="0 0 441.46 123.42"><defs><style>.cls-1{fill:none;stroke:#161a6e;stroke-miterlimit:10;}.cls-2,.cls-3,.cls-4{fill:#161a6e;}.cls-5{fill:#fff;}.cls-3{font-size:40px;letter-spacing:0em;}.cls-3,.cls-4{font-family:Pangram-Medium, Pangram;font-weight:500;}.cls-4{font-size:13.63px;}.cls-6{fill:#42c1ff;}.cls-7{letter-spacing:-.09em;}.cls-8{letter-spacing:-.1em;}.cls-9{letter-spacing:-.07em;}.cls-10{letter-spacing:-.08em;}.cls-11{letter-spacing:-.09em;}.cls-12{letter-spacing:-.09em;}.cls-13{letter-spacing:-.09em;}.cls-14{letter-spacing:-.06em;}.cls-15{letter-spacing:-.06em;}.cls-16{letter-spacing:-.06em;}.cls-17{letter-spacing:-.08em;}.cls-18{letter-spacing:-.06em;}.cls-19{letter-spacing:-.06em;}.cls-20{letter-spacing:-.11em;}.cls-21{letter-spacing:-.03em;}.cls-22{letter-spacing:-.02em;}.cls-23{letter-spacing:-.04em;}.cls-24{letter-spacing:-.05em;}.cls-25{letter-spacing:-.04em;}.cls-26{letter-spacing:-.03em;}.cls-27{letter-spacing:-.03em;}.cls-28{letter-spacing:-.03em;}.cls-29{letter-spacing:.01em;}.cls-30{letter-spacing:0em;}</style></defs><rect class="cls-6" x="35.05" y="26.36" width="52.85" height="52.85" rx="10.4" ry="10.4" transform="translate(-19.32 58.93) rotate(-45)"/><rect class="cls-2" x="146.39" y="25.65" width="54.27" height="54.27" rx="10.68" ry="10.68"/><path class="cls-1" d="M248.57,42.13v23.37c0,1.48.79,2.85,2.08,3.6l20.24,11.69c1.28.74,2.87.74,4.15,0l20.24-11.69c1.28-.74,2.08-2.11,2.08-3.6v-23.37c0-1.48-.79-2.85-2.08-3.6l-20.24-11.69c-1.28-.74-2.87-.74-4.15,0l-20.24,11.69c-1.28.74-2.08,2.11-2.08,3.6Z"/><text class="cls-4" transform="translate(21.8 109.37)"><tspan class="cls-12" x="0" y="0">A</tspan><tspan class="cls-13" x="9.21" y="0">s</tspan><tspan class="cls-17" x="15.83" y="0">s</tspan><tspan class="cls-19" x="22.64" y="0">e</tspan><tspan class="cls-30" x="30.92" y="0">t </tspan><tspan class="cls-14" x="39.97" y="0">h</tspan><tspan class="cls-16" x="47.82" y="0">o</tspan><tspan class="cls-23" x="56.46" y="0">ld</tspan><tspan class="cls-18" x="68.39" y="0">e</tspan><tspan class="cls-29" x="76.67" y="0">r</tspan></text><text class="cls-4" transform="translate(146.39 109.37)"><tspan class="cls-9" x="0" y="0">P</tspan><tspan class="cls-23" x="7.57" y="0">l</tspan><tspan class="cls-27" x="10.42" y="0">a</tspan><tspan class="cls-24" x="19.71" y="0">t</tspan><tspan class="cls-10" x="24.5" y="0">f</tspan><tspan class="cls-18" x="28.75" y="0">o</tspan><tspan class="cls-26" x="37.47" y="0">r</tspan><tspan class="cls-30" x="42.46" y="0">m</tspan></text><text class="cls-4" transform="translate(244.94 109.37)"><tspan class="cls-21" x="0" y="0">I</tspan><tspan class="cls-8" x="2.99" y="0">n</tspan><tspan class="cls-20" x="10.35" y="0">v</tspan><tspan class="cls-7" x="18.23" y="0">e</tspan><tspan class="cls-15" x="26.09" y="0">s</tspan><tspan class="cls-10" x="33.1" y="0">t</tspan><tspan class="cls-18" x="37.38" y="0">o</tspan><tspan class="cls-16" x="46.1" y="0">r</tspan><tspan class="cls-29" x="50.66" y="0">s</tspan></text><text class="cls-4" transform="translate(361.01 109.37)"><tspan class="cls-10" x="0" y="0">R</tspan><tspan class="cls-9" x="7.51" y="0">e</tspan><tspan class="cls-25" x="15.58" y="0">a</tspan><tspan class="cls-22" x="24.8" y="0">l</tspan><tspan class="cls-11" x="27.93" y="0">P</tspan><tspan class="cls-18" x="35.27" y="0">o</tspan><tspan class="cls-28" x="43.99" y="0">r</tspan><tspan class="cls-30" x="49.05" y="0">t</tspan></text><text class="cls-3" transform="translate(108.86 68.43)"><tspan x="0" y="0">+</tspan></text><text class="cls-3" transform="translate(217.26 68.43)"><tspan x="0" y="0">+</tspan></text><text class="cls-3" transform="translate(316.16 68.43)"><tspan x="0" y="0">=</tspan></text><rect class="cls-6" x="361.72" y="32.29" width="52.85" height="52.85" rx="10.4" ry="10.4" transform="translate(72.17 291.66) rotate(-45)"/><rect class="cls-2" x="361.01" y="31.58" width="54.27" height="54.27" rx="10.68" ry="10.68"/><path class="cls-5" d="M367.69,49.3v18.82c0,1.48.79,2.85,2.08,3.6l16.3,9.41c1.28.74,2.87.74,4.15,0l16.3-9.41c1.28-.74,2.08-2.11,2.08-3.6v-18.82c0-1.48-.79-2.85-2.08-3.6l-16.3-9.41c-1.28-.74-2.87-.74-4.15,0l-16.3,9.41c-1.28.74-2.08,2.11-2.08,3.6Z"/><path class="cls-2" d="M379.45,58.08h6.33c2.22,0,3.3-1.91,3.3-3.83s-1.04-3.7-3.3-3.7h-4.31l-4.04-6.93c1.85,0,6.53,0,8.39.02,7.35,0,10.96,5.43,10.96,10.78-.04,3.48-1.52,6.83-4.52,8.87l5.73,9.2.75,1.13h-9.18l-4.75-8.63h-1.31l-4.04-6.92Z"/><path class="cls-2" d="M264.33,53.26h6.33c2.22,0,3.3-1.91,3.3-3.83s-1.04-3.7-3.3-3.7h-4.31l-4.04-6.93c1.85,0,6.53,0,8.39.02,7.35,0,10.96,5.43,10.96,10.78-.04,3.48-1.52,6.83-4.52,8.87l5.73,9.2.75,1.13h-9.18l-4.75-8.63h-1.31l-4.04-6.92Z"/><path class="cls-5" d="M164.89,53.26h6.33c2.22,0,3.3-1.91,3.3-3.83s-1.04-3.7-3.3-3.7h-4.31l-4.04-6.93c1.85,0,6.53,0,8.39.02,7.35,0,10.96,5.43,10.96,10.78-.04,3.48-1.52,6.83-4.52,8.87l5.73,9.2.75,1.13h-9.18l-4.75-8.63h-1.31l-4.04-6.92Z"/><path class="cls-5" d="M52.85,53.26h6.33c2.22,0,3.3-1.91,3.3-3.83s-1.04-3.7-3.3-3.7h-4.31l-4.04-6.93c1.85,0,6.53,0,8.39.02,7.35,0,10.96,5.43,10.96,10.78-.04,3.48-1.52,6.83-4.52,8.87l5.73,9.2.75,1.13h-9.18l-4.75-8.63h-1.31l-4.04-6.92Z"/></svg>