<svg width="120" height="33" viewBox="0 0 120 33" fill="none" xmlns="http://www.w3.org/2000/svg">
<path d="M12.83 1.53064L1.53064 12.7803C-0.510215 14.8211 -0.510215 18.0566 1.53064 20.0975L12.83 31.3969C14.8709 33.4377 18.1064 33.4377 20.1472 31.3969L31.4466 20.0975C33.4875 18.0566 33.4875 14.8211 31.4466 12.7803L20.1472 1.53064C18.1064 -0.510215 14.8211 -0.510215 12.83 1.53064Z" fill="#42C1FF"/>
<path d="M24.6772 2.9744H8.30057C5.36372 2.9744 2.97443 5.3637 2.97443 8.30055V24.6772C2.97443 27.614 5.36372 30.0033 8.30057 30.0033H24.6772C27.6141 30.0033 30.0034 27.614 30.0034 24.6772V8.25077C30.0034 5.31392 27.6141 2.9744 24.6772 2.9744Z" fill="#161A6E"/>
<path d="M6.30972 11.7851V21.1432C6.30972 21.8898 6.70794 22.5867 7.35504 22.9352L15.4687 27.6142C16.1158 27.9626 16.9122 27.9626 17.5593 27.6142L25.673 22.9352C26.3201 22.5867 26.7183 21.8898 26.7183 21.1432V11.7851C26.7183 11.0384 26.3201 10.3416 25.673 9.99312L17.5593 5.31408C16.9122 4.96564 16.1158 4.96564 15.4687 5.31408L7.30526 9.99312C6.70794 10.3416 6.30972 11.0384 6.30972 11.7851Z" fill="white"/>
<path d="M12.134 16.1658H15.27C16.365 16.1658 16.9126 15.22 16.9126 14.2742C16.9126 13.3285 16.4148 12.4325 15.27 12.4325H13.1295L11.1385 8.99788C12.0842 8.99788 14.374 8.99788 15.3197 8.99788C18.9535 8.99788 20.7952 11.6858 20.7952 14.3738C20.7952 16.116 20.0485 17.7586 18.5552 18.804L21.3925 23.3834L21.741 23.8812H17.1615L14.7722 19.6004H14.1251L12.134 16.1658Z" fill="#161A6E"/>
<path d="M43.2438 19.4504H41.1532V23.9303H37.9674V8.94742H43.7914C46.6286 8.94742 49.2668 10.9385 49.2668 14.174C49.2668 16.3642 48.0722 17.9571 46.4295 18.8033L49.4162 23.8805H45.8322L43.2438 19.4504ZM41.1532 16.4638H43.7914C45.0856 16.4638 46.0811 15.6175 46.0811 14.2238C46.0811 12.83 45.0856 11.9838 43.7914 11.9838H41.1532V16.4638Z" fill="#161A6E"/>
<path d="M60.6666 19.3513H53.299C53.3488 20.1976 53.996 21.0936 55.6387 21.0936C56.6343 21.0936 57.3811 20.5958 57.7793 19.9985L60.5172 20.2971C60.2683 21.691 58.6256 23.8814 55.6387 23.8814C52.3034 23.8814 50.1628 21.3425 50.1628 18.3557C50.1628 15.4186 52.2039 12.9296 55.4396 12.9296C58.7251 12.9296 60.7164 15.4684 60.7164 18.5548V19.3513H60.6666ZM53.299 17.2107H57.5304C57.4806 16.4142 56.6841 15.7173 55.3898 15.7173C54.1453 15.7173 53.3488 16.4142 53.299 17.2107Z" fill="#161A6E"/>
<path d="M67.1869 12.9296C68.8297 12.9296 70.124 13.7759 70.6218 14.7715L70.8209 12.9296H73.758V23.8814H70.8209L70.6218 22.0395C70.124 23.0351 68.8795 23.8814 67.1869 23.8814C64.2001 23.8814 62.0595 21.3923 62.0595 18.4055C62.0595 15.3688 64.2001 12.9296 67.1869 12.9296ZM67.7345 20.8945C69.2777 20.8945 70.2236 19.7496 70.2236 18.4055C70.2236 17.0614 69.228 15.8667 67.7345 15.8667C66.1913 15.8667 65.1957 17.0116 65.1957 18.4055C65.1957 19.7993 66.1913 20.8945 67.7345 20.8945Z" fill="#161A6E"/>
<path d="M78.8842 23.8805H75.6985V8.94742H78.8842V23.8805Z" fill="#161A6E"/>
<path d="M92.1746 14.174C92.1746 17.4593 89.5365 19.4006 86.5996 19.4006H84.0112V23.8805H80.8255V8.94742H86.5996C89.5365 8.94742 92.1746 10.8887 92.1746 14.174ZM89.0387 14.174C89.0387 12.7305 88.0431 11.934 86.6494 11.934H84.061V16.414H86.6494C87.9934 16.414 89.0387 15.6175 89.0387 14.174Z" fill="#42C1FF"/>
<path d="M93.0208 18.4055C93.0208 15.3688 95.3108 12.9296 98.7456 12.9296C102.131 12.9296 104.421 15.3688 104.421 18.4055C104.421 21.4421 102.131 23.8814 98.7456 23.8814C95.3108 23.8814 93.0208 21.3923 93.0208 18.4055ZM101.235 18.4055C101.235 17.0614 100.239 15.8667 98.7456 15.8667C97.2024 15.8667 96.2068 17.0116 96.2068 18.4055C96.2068 19.7993 97.2024 20.8945 98.7456 20.8945C100.239 20.8945 101.235 19.7496 101.235 18.4055Z" fill="#42C1FF"/>
<path d="M112.086 13.1785V16.016C111.837 15.8667 111.339 15.7173 110.991 15.7173C109.796 15.7173 109 16.8623 109 19.3016V23.8814H105.814V12.9296H108.8L108.95 13.9252C109.597 13.1785 110.095 12.6807 110.891 12.6807C111.389 12.7305 112.036 13.1785 112.086 13.1785Z" fill="#42C1FF"/>
<path d="M119.951 16.1157H117.96V23.6824H116.665C115.67 23.6824 114.873 22.8859 114.873 21.8903V16.1157H112.932V12.88H114.873V10.5901H118.009V12.88H120.001V16.1157H119.951Z" fill="#42C1FF"/>
<path d="M119.951 23.9313H116.964C115.769 23.9313 114.823 22.9855 114.823 21.7907V19.7497H117.96V20.148C117.96 20.596 118.308 20.9444 118.756 20.9444H119.951V23.9313Z" fill="#42C1FF"/>
</svg>
