<?xml version="1.0" encoding="UTF-8"?><svg id="Layer_1" xmlns="http://www.w3.org/2000/svg" viewBox="0 0 118.92 123.42"><defs><style>.cls-1{fill:#161a6e;}.cls-2{fill:#fff;}.cls-3{fill:#42c1ff;}</style></defs><rect class="cls-3" x="30.96" y="35.08" width="52.85" height="52.85" rx="10.4" ry="10.4" transform="translate(-26.68 58.59) rotate(-45)"/><rect class="cls-1" x="30.25" y="34.37" width="54.27" height="54.27" rx="10.68" ry="10.68"/><path class="cls-2" d="M36.94,52.1v18.82c0,1.48.79,2.85,2.08,3.6l16.3,9.41c1.28.74,2.87.74,4.15,0l16.3-9.41c1.28-.74,2.08-2.11,2.08-3.6v-18.82c0-1.48-.79-2.85-2.08-3.6l-16.3-9.41c-1.28-.74-2.87-.74-4.15,0l-16.3,9.41c-1.28.74-2.08,2.11-2.08,3.6Z"/><path class="cls-1" d="M48.69,60.87h6.33c2.22,0,3.3-1.91,3.3-3.83s-1.04-3.7-3.3-3.7h-4.31l-4.04-6.93c1.85,0,6.53,0,8.39.02,7.35,0,10.96,5.43,10.96,10.78-.04,3.48-1.52,6.83-4.52,8.87l5.73,9.2.75,1.13h-9.18l-4.75-8.63h-1.31l-4.04-6.92Z"/></svg>