<?xml version="1.0" encoding="UTF-8"?><svg id="Layer_1" xmlns="http://www.w3.org/2000/svg" xmlns:xlink="http://www.w3.org/1999/xlink" viewBox="0 0 841.89 595.28"><defs><style>.cls-1,.cls-2,.cls-3,.cls-4,.cls-5,.cls-6{fill:none;}.cls-7,.cls-8,.cls-9,.cls-10,.cls-11,.cls-12{font-family:Intro-Black, Intro;font-weight:800;}.cls-7,.cls-8,.cls-13{fill:#808285;}.cls-7,.cls-12{font-size:13.33px;}.cls-14{fill:#003b71;}.cls-15{fill:#00acd8;}.cls-2{stroke:#fff;}.cls-2,.cls-3,.cls-4,.cls-5,.cls-6{stroke-miterlimit:10;}.cls-8{font-size:25.45px;}.cls-9{font-size:8px;}.cls-9,.cls-10,.cls-11{fill:#9a9b9d;}.cls-3,.cls-5,.cls-6{stroke:#9a9b9d;stroke-width:.25px;}.cls-10{font-size:12px;}.cls-16{clip-path:url(#clippath-1);}.cls-4{stroke:#e4f1f9;}.cls-11{font-size:6px;}.cls-17{letter-spacing:-.02em;}.cls-18{letter-spacing:-.02em;}.cls-12{fill:#414042;}.cls-5{stroke-dasharray:3;}.cls-19{clip-path:url(#clippath);}.cls-6{stroke-dasharray:2.97 2.97;}</style><clipPath id="clippath"><rect class="cls-1" x="-6" y="-23.8" width="902.62" height="638.22"/></clipPath><clipPath id="clippath-1"><rect class="cls-1" x="-446.19" y="-309.72" width="1367.6" height="1004.98"/></clipPath></defs><g class="cls-19"><g class="cls-16"><line class="cls-4" x1="9.89" y1="-49.96" x2="9.89" y2="658.39"/><line class="cls-4" x1="40.95" y1="-49.96" x2="40.95" y2="658.39"/><line class="cls-4" x1="72.02" y1="-49.96" x2="72.02" y2="658.39"/><line class="cls-4" x1="103.08" y1="-49.96" x2="103.08" y2="658.39"/><line class="cls-4" x1="134.14" y1="-49.96" x2="134.14" y2="658.39"/><line class="cls-4" x1="165.2" y1="-49.96" x2="165.2" y2="658.39"/><line class="cls-4" x1="196.27" y1="-49.96" x2="196.27" y2="658.39"/><line class="cls-4" x1="227.33" y1="-49.96" x2="227.33" y2="658.39"/><line class="cls-4" x1="258.39" y1="-49.96" x2="258.39" y2="658.39"/><line class="cls-4" x1="289.46" y1="-49.96" x2="289.46" y2="658.39"/><line class="cls-4" x1="320.52" y1="-49.96" x2="320.52" y2="658.39"/><line class="cls-4" x1="351.58" y1="-49.96" x2="351.58" y2="658.39"/><line class="cls-4" x1="382.64" y1="-49.96" x2="382.64" y2="658.39"/><line class="cls-4" x1="416.23" y1="-49.96" x2="416.23" y2="658.39"/><line class="cls-4" x1="447.29" y1="-49.96" x2="447.29" y2="658.39"/><line class="cls-4" x1="478.35" y1="-49.96" x2="478.35" y2="658.39"/><line class="cls-4" x1="509.41" y1="-49.96" x2="509.41" y2="658.39"/><line class="cls-4" x1="540.48" y1="-49.96" x2="540.48" y2="658.39"/><line class="cls-4" x1="571.54" y1="-49.96" x2="571.54" y2="658.39"/><line class="cls-4" x1="602.6" y1="-49.96" x2="602.6" y2="658.39"/><line class="cls-4" x1="633.66" y1="-49.96" x2="633.66" y2="658.39"/><line class="cls-4" x1="664.73" y1="-49.96" x2="664.73" y2="658.39"/><line class="cls-4" x1="695.79" y1="-49.96" x2="695.79" y2="658.39"/><line class="cls-4" x1="726.85" y1="-49.96" x2="726.85" y2="658.39"/><line class="cls-4" x1="757.91" y1="-49.96" x2="757.91" y2="658.39"/><line class="cls-4" x1="788.98" y1="-49.96" x2="788.98" y2="658.39"/><line class="cls-4" x1="820.04" y1="-49.96" x2="820.04" y2="658.39"/><line class="cls-4" x1="-104.53" y1="571.53" x2="840.95" y2="571.53"/><line class="cls-4" x1="-104.53" y1="540.47" x2="840.95" y2="540.47"/><line class="cls-4" x1="-104.53" y1="509.41" x2="840.95" y2="509.41"/><line class="cls-4" x1="-104.53" y1="478.34" x2="840.95" y2="478.34"/><line class="cls-4" x1="-104.53" y1="447.28" x2="840.95" y2="447.28"/><line class="cls-4" x1="-104.53" y1="416.22" x2="840.95" y2="416.22"/><line class="cls-4" x1="-104.53" y1="382.64" x2="840.95" y2="382.64"/><line class="cls-4" x1="-104.53" y1="351.57" x2="840.95" y2="351.57"/><line class="cls-4" x1="-104.53" y1="320.51" x2="840.95" y2="320.51"/><line class="cls-4" x1="-104.53" y1="289.45" x2="840.95" y2="289.45"/><line class="cls-4" x1="-104.53" y1="258.39" x2="840.95" y2="258.39"/><line class="cls-4" x1="-104.53" y1="227.32" x2="840.95" y2="227.32"/><line class="cls-4" x1="-104.53" y1="196.26" x2="840.95" y2="196.26"/><line class="cls-4" x1="-104.53" y1="165.2" x2="840.95" y2="165.2"/><line class="cls-4" x1="-104.53" y1="134.14" x2="840.95" y2="134.14"/><line class="cls-4" x1="-104.53" y1="103.07" x2="840.95" y2="103.07"/><line class="cls-4" x1="-104.53" y1="72.01" x2="840.95" y2="72.01"/><line class="cls-4" x1="-104.53" y1="40.95" x2="840.95" y2="40.95"/><line class="cls-4" x1="-104.53" y1="9.88" x2="840.95" y2="9.88"/></g></g><path class="cls-14" d="M377.79,227.08h-16.01v41.92h16.01c13.92,0,20.87-10.62,20.69-21.17,0-10.32-7.02-20.75-20.69-20.75ZM377.68,259.1h-4.92v-22.19h4.92c6.48,0,9.83,5.51,9.83,11.03s-3.18,11.15-9.83,11.15Z"/><polygon class="cls-14" points="431.53 236.55 416.3 236.55 416.3 242.55 430.33 242.55 430.33 252.15 416.3 252.15 416.3 258.98 432.07 258.98 432.07 269 405.32 269 405.32 227.02 431.53 227.02 431.53 236.55"/><polygon class="cls-14" points="450.6 247.34 450.6 269 439.62 269 439.62 226.83 443.04 226.83 464.93 247.53 464.93 227.02 475.91 227.02 475.91 269.12 472.67 269.12 450.6 247.34"/><polygon class="cls-14" points="481.54 236.61 481.54 227.02 512.73 227.02 512.73 236.61 502.47 236.61 502.47 269 491.86 269 491.86 236.61 481.54 236.61"/><path class="cls-14" d="M534.08,226.6h-5.04l-19.25,40.9v1.5h11.45l2.4-5.22h15.71l2.46,5.22h11.33v-1.5l-19.07-40.9ZM527.18,254.6l4.32-10.13,4.38,10.13h-8.7Z"/><polygon class="cls-14" points="567.97 259.16 580.14 259.16 580.14 269 556.99 269 556.99 227.02 567.97 227.02 567.97 259.16"/><polygon class="cls-14" points="398.7 283.46 402.57 283.46 402.57 325.27 391.67 325.27 391.67 306.03 382.8 315.32 381.55 315.32 372.68 306.03 372.68 325.27 361.78 325.27 361.78 283.46 365.65 283.46 382.2 301.51 398.7 283.46"/><polygon class="cls-14" points="437.53 293.05 422.4 293.05 422.4 299.01 436.34 299.01 436.34 308.54 422.4 308.54 422.4 315.32 438.06 315.32 438.06 325.27 411.5 325.27 411.5 283.58 437.53 283.58 437.53 293.05"/><path class="cls-14" d="M461.53,283.64h-15.9v41.63h15.9c13.82,0,20.72-10.54,20.55-21.02,0-10.24-6.97-20.6-20.55-20.6ZM461.41,315.44h-4.88v-22.03h4.88c6.43,0,9.77,5.48,9.77,10.96s-3.16,11.08-9.77,11.08Z"/><polygon class="cls-14" points="508.04 316.45 508.04 325.27 486.54 325.27 486.54 316.45 491.84 316.45 491.84 292.39 487.01 292.39 487.01 283.58 507.56 283.58 507.56 292.39 502.74 292.39 502.74 316.45 508.04 316.45"/><path class="cls-14" d="M533.88,283.16c8.58,0,17.99,4.64,19.6,15.78h-10.48c-1.49-4.29-4.64-5.95-9.11-5.95-6.31,0-10.42,4.52-10.42,11.43,0,6.01,4.05,11.31,10.42,11.31,4.53,0,8.1-2.08,9.23-6.61h10.48c-1.61,11.85-10.84,16.56-19.71,16.56-10.66,0-21.32-7.15-21.32-21.2s10.66-21.32,21.32-21.32Z"/><path class="cls-14" d="M578.31,283.16h-5l-19.12,40.61v1.49h11.37l2.38-5.18h15.6l2.44,5.18h11.26v-1.49l-18.94-40.61ZM571.46,310.97l4.29-10.06,4.35,10.06h-8.63Z"/><polygon class="cls-14" points="611.95 315.5 624.02 315.5 624.02 325.27 601.05 325.27 601.05 283.58 611.95 283.58 611.95 315.5"/><path class="cls-14" d="M382.84,340.36c8.13,0,16.61,4.15,18.77,14.1h-10.41c-1.81-3.28-4.39-4.51-8.36-4.51-6.61,0-10.23,5.21-10.23,11.41,0,6.84,3.98,11.23,10.23,11.23,4.21,0,6.9-1.06,8.83-4.97h-8.71v-9.01h19.3c.29,3.98.23,7.9-1.11,11.88-2.98,8.6-10.7,11.87-18.31,11.87-10.41,0-21.06-6.96-21.06-20.94s10.65-21.05,21.06-21.05Z"/><path class="cls-14" d="M435.47,367.26c4.04-2.75,6.03-7.25,6.08-11.93,0-7.19-4.86-14.5-14.74-14.5-6.02-.06-11.93,0-18.01,0v40.94h10.7v-12.81h5.61l7.02,12.81h11.35v-1.52l-8.02-12.99ZM426.76,360.25h-7.43v-10.12h7.43c3.04,0,4.44,2.4,4.44,4.97s-1.46,5.15-4.44,5.15Z"/><path class="cls-14" d="M468.05,340.07c-10.64,0-21.11,7.13-21.11,21.29s10.12,21.23,20.94,21.23c12.4,0,21.05-8.71,21.05-21.23,0-14.16-10.41-21.29-20.88-21.29ZM467.93,372.47c-5.26,0-10.29-3.81-10.29-11.12s5.09-11.11,10.41-11.11,10.18,3.8,10.18,11.11-5.21,11.12-10.29,11.12Z"/><path class="cls-14" d="M495.19,368.31v-27.42h10.71v27.2c0,3.39,2.98,4.85,6.02,4.85,2.87,0,5.91-1.46,5.91-4.85v-27.2h10.59v27.42c0,9.19-7.95,14.04-16.55,14.04s-16.67-4.86-16.67-14.04Z"/><path class="cls-14" d="M554.96,340.83c-6.08-.06-11.99,0-18.07,0v40.94h10.7v-10.58h7.37c9.71,0,14.68-7.49,14.68-14.97.18-7.72-4.86-15.38-14.68-15.38ZM554.96,361.88h-7.55v-11.76h7.55c2.92,0,4.44,2.86,4.44,5.79s-1.64,5.97-4.44,5.97Z"/><polygon class="cls-15" points="296.41 382.58 339.67 382.58 270.36 226.53 227.1 226.53 296.41 382.58"/><line class="cls-3" x1="200.61" y1="227.02" x2="169.61" y2="227.02"/><line class="cls-3" x1="200.61" y1="283.16" x2="169.61" y2="283.16"/><line class="cls-3" x1="185.11" y1="280.95" x2="185.11" y2="268.59"/><line class="cls-3" x1="185.11" y1="242.28" x2="185.11" y2="229.92"/><text class="cls-10" transform="translate(179.28 259.26)"><tspan x="0" y="0">1x</tspan></text><line class="cls-3" x1="227.04" y1="392.09" x2="227.04" y2="423.09"/><line class="cls-3" x1="283.19" y1="392.09" x2="283.19" y2="423.09"/><line class="cls-3" x1="280.97" y1="407.59" x2="268.61" y2="407.59"/><line class="cls-3" x1="242.3" y1="407.59" x2="229.94" y2="407.59"/><text class="cls-10" transform="translate(249.75 410.75)"><tspan x="0" y="0">1x</tspan></text><line class="cls-3" x1="623.02" y1="392.09" x2="623.02" y2="423.09"/><text class="cls-10" transform="translate(502.52 410.75)"><tspan x="0" y="0">4x</tspan></text><line class="cls-3" x1="623.02" y1="217.02" x2="623.02" y2="386.08"/><line class="cls-3" x1="396.78" y1="392.09" x2="396.78" y2="423.09"/><line class="cls-3" x1="361.28" y1="217.03" x2="361.28" y2="386.09"/><line class="cls-3" x1="339.61" y1="217.03" x2="339.61" y2="386.09"/><line class="cls-3" x1="296.94" y1="217.03" x2="296.94" y2="386.09"/><line class="cls-3" x1="269.61" y1="217.03" x2="269.61" y2="386.09"/><line class="cls-5" x1="226.94" y1="217.03" x2="226.94" y2="386.09"/><line class="cls-3" x1="215.87" y1="202" x2="216.48" y2="203.37"/><line class="cls-6" x1="217.68" y1="206.08" x2="299.23" y2="389.23"/><line class="cls-3" x1="299.83" y1="390.59" x2="300.44" y2="391.96"/><line class="cls-3" x1="482.08" y1="407.59" x2="399.69" y2="407.59"/><line class="cls-3" x1="619.91" y1="407.59" x2="537.52" y2="407.59"/><line class="cls-3" x1="339.67" y1="392.09" x2="339.67" y2="423.09"/><line class="cls-3" x1="337.45" y1="407.59" x2="325.09" y2="407.59"/><line class="cls-3" x1="298.78" y1="407.59" x2="286.43" y2="407.59"/><text class="cls-10" transform="translate(306.23 410.75)"><tspan x="0" y="0">1x</tspan></text><line class="cls-3" x1="200.61" y1="340.07" x2="169.61" y2="340.07"/><line class="cls-3" x1="185.11" y1="337.85" x2="185.11" y2="325.49"/><line class="cls-3" x1="185.11" y1="299.18" x2="185.11" y2="286.83"/><text class="cls-10" transform="translate(179.28 316.16)"><tspan x="0" y="0">1x</tspan></text><line class="cls-3" x1="200.61" y1="382.59" x2="169.61" y2="382.59"/><line class="cls-5" x1="359.18" y1="382.59" x2="205" y2="382.59"/><line class="cls-3" x1="185.11" y1="350.93" x2="185.11" y2="341.65"/><line class="cls-3" x1="185.11" y1="381.76" x2="185.11" y2="372.49"/><text class="cls-9" transform="translate(176.11 365.16)"><tspan x="0" y="0">6/8x</tspan></text><text class="cls-9" transform="translate(274.79 378.62)"><tspan x="0" y="0">24</tspan><tspan class="cls-18" x="9.29" y="0">’</tspan></text><text class="cls-9" transform="translate(229.95 249.26) rotate(90)"><tspan x="0" y="0">66</tspan><tspan class="cls-17" x="9.87" y="0">’</tspan></text><line class="cls-3" x1="226.94" y1="178.19" x2="226.94" y2="209.19"/><line class="cls-3" x1="269.47" y1="178.19" x2="269.47" y2="209.19"/><line class="cls-3" x1="236.12" y1="193.69" x2="228.53" y2="193.69"/><line class="cls-3" x1="266.79" y1="193.69" x2="259.19" y2="193.69"/><text class="cls-9" transform="translate(239.37 196.59)"><tspan x="0" y="0">6/8x</tspan></text><text class="cls-11" transform="translate(277.04 196.59)"><tspan x="0" y="0">4/8x</tspan></text><line class="cls-3" x1="296.94" y1="178.19" x2="296.94" y2="209.19"/><line class="cls-3" x1="339.47" y1="178.19" x2="339.47" y2="209.19"/><line class="cls-3" x1="306.12" y1="193.69" x2="298.53" y2="193.69"/><line class="cls-3" x1="336.79" y1="193.69" x2="329.19" y2="193.69"/><text class="cls-9" transform="translate(309.37 196.59)"><tspan x="0" y="0">6/8x</tspan></text><line class="cls-3" x1="361.28" y1="422.96" x2="361.28" y2="391.96"/><line class="cls-3" x1="362.35" y1="407.59" x2="367.62" y2="407.59"/><line class="cls-3" x1="390.11" y1="407.59" x2="395.37" y2="407.59"/><text class="cls-11" transform="translate(371.99 409.56)"><tspan x="0" y="0">5/8x</tspan></text><text class="cls-11" transform="translate(343.68 409.56)"><tspan x="0" y="0">3/8x</tspan></text><line class="cls-3" x1="623.02" y1="426.04" x2="623.02" y2="457.04"/><line class="cls-3" x1="453.44" y1="441.54" x2="343.68" y2="441.54"/><line class="cls-3" x1="618.74" y1="441.54" x2="508.97" y2="441.54"/><text class="cls-10" transform="translate(476.16 444.7)"><tspan x="0" y="0">5x</tspan></text><line class="cls-3" x1="339.67" y1="426.04" x2="339.67" y2="457.04"/><text class="cls-11" transform="translate(643.26 278.66)"><tspan x="0" y="0">2/8x</tspan></text><text class="cls-11" transform="translate(643.26 335.35)"><tspan x="0" y="0">2/8x</tspan></text><line class="cls-3" x1="361.78" y1="269" x2="658.28" y2="269"/><line class="cls-3" x1="361.78" y1="283.16" x2="658.28" y2="283.16"/><line class="cls-3" x1="361.78" y1="325.27" x2="658.28" y2="325.27"/><line class="cls-3" x1="361.78" y1="340.07" x2="658.28" y2="340.07"/><rect class="cls-13" x="56.68" y="56.64" width="56.59" height="56.59"/><rect class="cls-13" x="170.52" y="56.64" width="56.59" height="56.59"/><line class="cls-2" x1="177.4" y1="56.64" x2="177.4" y2="113.23"/><line class="cls-2" x1="184.17" y1="56.64" x2="184.17" y2="113.23"/><line class="cls-2" x1="191.83" y1="56.64" x2="191.83" y2="113.23"/><line class="cls-2" x1="198.81" y1="56.64" x2="198.81" y2="113.23"/><line class="cls-2" x1="205.96" y1="56.64" x2="205.96" y2="113.23"/><line class="cls-2" x1="213.03" y1="56.64" x2="213.03" y2="113.23"/><line class="cls-2" x1="220.1" y1="56.64" x2="220.1" y2="113.23"/><line class="cls-2" x1="170.52" y1="106.29" x2="227.1" y2="106.29"/><line class="cls-2" x1="170.52" y1="99.51" x2="227.1" y2="99.51"/><line class="cls-2" x1="170.52" y1="91.86" x2="227.1" y2="91.86"/><line class="cls-2" x1="170.52" y1="84.87" x2="227.1" y2="84.87"/><line class="cls-2" x1="170.52" y1="77.72" x2="227.1" y2="77.72"/><line class="cls-2" x1="170.52" y1="70.66" x2="227.1" y2="70.66"/><line class="cls-2" x1="170.52" y1="63.59" x2="227.1" y2="63.59"/><text class="cls-12" transform="translate(78.17 89.45)"><tspan x="0" y="0">1x</tspan></text><text class="cls-12" transform="translate(184.17 89.45)"><tspan x="0" y="0">8/8x</tspan></text><text class="cls-7" transform="translate(78.17 129.08)"><tspan x="0" y="0">1x</tspan></text><text class="cls-7" transform="translate(184.17 129.08)"><tspan x="0" y="0">8/8x</tspan></text><text class="cls-8" transform="translate(133.69 92.91)"><tspan x="0" y="0">=</tspan></text><path class="cls-3" d="M301.3,375.37c-1.39-.95-3.08-1.5-4.89-1.5-4.81,0-8.71,3.9-8.71,8.71,0,1.72.5,3.32,1.35,4.67"/><text class="cls-9" transform="translate(236.75 378.62)"><tspan x="0" y="0">90</tspan><tspan class="cls-17" x="10.11" y="0">’</tspan></text><path class="cls-3" d="M223.14,375.37c1.39-.95,3.08-1.5,4.89-1.5,4.81,0,8.71,3.9,8.71,8.71,0,1.72-.5,3.32-1.35,4.67"/><path class="cls-3" d="M220.63,242.98c.98,1.37,2.36,2.48,4.07,3.11,4.51,1.67,9.52-.63,11.19-5.14.6-1.61.69-3.28.35-4.85"/></svg>