<?xml version="1.0" encoding="UTF-8"?><svg id="Layer_1" xmlns="http://www.w3.org/2000/svg" viewBox="0 0 396.91 156.05"><defs><style>.cls-1{fill:#00acd8;}.cls-2{fill:#183f6f;}</style></defs><path class="cls-2" d="M150.69.54h-16.01v41.92h16.01c13.92,0,20.87-10.62,20.69-21.17,0-10.32-7.02-20.75-20.69-20.75ZM150.57,32.57h-4.92V10.38h4.92c6.48,0,9.83,5.51,9.83,11.03s-3.18,11.15-9.83,11.15Z"/><polygon class="cls-2" points="204.42 10.02 189.19 10.02 189.19 16.02 203.22 16.02 203.22 25.62 189.19 25.62 189.19 32.45 204.96 32.45 204.96 42.47 178.21 42.47 178.21 .48 204.42 .48 204.42 10.02"/><polygon class="cls-2" points="223.49 20.81 223.49 42.47 212.52 42.47 212.52 .3 215.94 .3 237.83 20.99 237.83 .48 248.8 .48 248.8 42.58 245.56 42.58 223.49 20.81"/><polygon class="cls-2" points="254.44 10.08 254.44 .48 285.63 .48 285.63 10.08 275.37 10.08 275.37 42.47 264.75 42.47 264.75 10.08 254.44 10.08"/><path class="cls-2" d="M306.98.06h-5.04l-19.25,40.9v1.5h11.45l2.4-5.22h15.71l2.46,5.22h11.33v-1.5L306.98.06ZM300.08,28.07l4.32-10.13,4.38,10.13h-8.7Z"/><polygon class="cls-2" points="340.86 32.63 353.04 32.63 353.04 42.47 329.88 42.47 329.88 .48 340.86 .48 340.86 32.63"/><polygon class="cls-2" points="171.6 56.93 175.47 56.93 175.47 98.74 164.57 98.74 164.57 79.5 155.7 88.79 154.45 88.79 145.57 79.5 145.57 98.74 134.68 98.74 134.68 56.93 138.54 56.93 155.1 74.98 171.6 56.93"/><polygon class="cls-2" points="210.42 66.52 195.3 66.52 195.3 72.48 209.23 72.48 209.23 82 195.3 82 195.3 88.79 210.96 88.79 210.96 98.74 184.4 98.74 184.4 57.05 210.42 57.05 210.42 66.52"/><path class="cls-2" d="M234.42,57.11h-15.9v41.63h15.9c13.82,0,20.72-10.54,20.55-21.02,0-10.24-6.97-20.61-20.55-20.61ZM234.3,88.91h-4.88v-22.04h4.88c6.43,0,9.77,5.48,9.77,10.96s-3.16,11.08-9.77,11.08Z"/><polygon class="cls-2" points="280.93 89.92 280.93 98.74 259.43 98.74 259.43 89.92 264.73 89.92 264.73 65.86 259.91 65.86 259.91 57.05 280.45 57.05 280.45 65.86 275.63 65.86 275.63 89.92 280.93 89.92"/><path class="cls-2" d="M306.77,56.63c8.58,0,17.99,4.64,19.6,15.78h-10.48c-1.49-4.29-4.64-5.95-9.11-5.95-6.31,0-10.42,4.53-10.42,11.43,0,6.01,4.05,11.31,10.42,11.31,4.53,0,8.1-2.08,9.23-6.61h10.48c-1.61,11.85-10.84,16.56-19.71,16.56-10.66,0-21.32-7.15-21.32-21.2s10.66-21.32,21.32-21.32Z"/><path class="cls-2" d="M351.2,56.63h-5l-19.12,40.62v1.49h11.38l2.38-5.18h15.6l2.44,5.18h11.26v-1.49l-18.94-40.62ZM344.35,84.44l4.29-10.06,4.35,10.06h-8.63Z"/><polygon class="cls-2" points="384.85 88.97 396.91 88.97 396.91 98.74 373.95 98.74 373.95 57.05 384.85 57.05 384.85 88.97"/><path class="cls-2" d="M155.73,113.83c8.13,0,16.61,4.15,18.77,14.1h-10.41c-1.81-3.28-4.39-4.51-8.36-4.51-6.61,0-10.23,5.21-10.23,11.41,0,6.84,3.98,11.23,10.23,11.23,4.21,0,6.9-1.06,8.83-4.97h-8.71v-9.01h19.3c.29,3.98.23,7.9-1.11,11.88-2.98,8.6-10.71,11.87-18.31,11.87-10.41,0-21.05-6.96-21.05-20.94s10.64-21.05,21.05-21.05Z"/><path class="cls-2" d="M208.37,140.73c4.04-2.75,6.03-7.25,6.08-11.93,0-7.19-4.86-14.5-14.74-14.5-6.02-.06-11.93,0-18.01,0v40.94h10.7v-12.81h5.61l7.02,12.81h11.35v-1.52l-8.02-12.99ZM199.65,133.71h-7.43v-10.12h7.43c3.04,0,4.44,2.4,4.44,4.97s-1.46,5.15-4.44,5.15Z"/><path class="cls-2" d="M240.95,113.53c-10.64,0-21.11,7.13-21.11,21.29s10.12,21.23,20.94,21.23c12.4,0,21.05-8.71,21.05-21.23,0-14.16-10.41-21.29-20.88-21.29ZM240.83,145.94c-5.26,0-10.29-3.81-10.29-11.12s5.09-11.11,10.41-11.11,10.18,3.8,10.18,11.11-5.21,11.12-10.29,11.12Z"/><path class="cls-2" d="M268.08,141.78v-27.42h10.71v27.2c0,3.39,2.98,4.85,6.02,4.85,2.87,0,5.91-1.46,5.91-4.85v-27.2h10.59v27.42c0,9.19-7.95,14.04-16.55,14.04s-16.67-4.86-16.67-14.04Z"/><path class="cls-2" d="M327.86,114.3c-6.08-.06-11.99,0-18.07,0v40.94h10.7v-10.58h7.37c9.71,0,14.68-7.49,14.68-14.97.18-7.72-4.86-15.38-14.68-15.38ZM327.86,135.35h-7.55v-11.76h7.55c2.92,0,4.44,2.86,4.44,5.79s-1.64,5.97-4.44,5.97Z"/><polygon class="cls-1" points="69.3 156.05 112.56 156.05 43.26 0 0 0 69.3 156.05"/></svg>