<?xml version="1.0" encoding="UTF-8"?><svg id="Layer_2" xmlns="http://www.w3.org/2000/svg" viewBox="0 0 265.99 270.83"><defs><style>.cls-1{fill:#26ffbe;}</style></defs><g id="Layer_1-2"><path class="cls-1" d="M108,19.5c.53-5.52,2.76-15.61,6.99-19.5,5.52,9.82,9.23,20.41,10.88,31.63.88,5.97.7,11.9,1.26,17.74.11,1.12.46,5.5,1.86,5.62,1.41-16.05,5.13-35.75,14.18-49.33.72-1.08,3.01-4.66,4.34-2.67,7.34,20.51.96,40.5-2.26,60.76-.17,1.06-1.06,3.48.74,3.24,7.19-20.49,17.14-41.81,34-55.99,1.32,21.68-8.24,41.45-15.98,61,13.04-16.56,25.16-35.84,44.99-44.99-1.3,6.44-3.25,12.63-5.82,18.67-2.86,6.73-7.19,12.69-10.16,19.33,11.18-7.67,22.21-19.9,35.51-23.98,3.4-1.04-1.57,8.69-2.15,9.86-7.36,14.81-17.19,23.49-27.37,35.62-.94,1.12-2.43,1.63-1.99,3.5,15.35-10.41,33.67-22.86,52.24-26.26.76-.14,2.6-1.75,1.74.74-.7,2.03-7.58,10.39-9.47,12.53-10.31,11.69-23.51,20.22-35.51,29.98,18.47-8.18,37.32-17.36,58-17.98-4.06,7.9-12.41,12.01-18.67,17.82l-33.33,19.16c17.66-4.16,35.7-9.44,53.99-5.98-17.04,17.99-44.55,23.69-67.99,29-.27,1.66,2.42,1.07,3.53,1.03,2.85-.1,5.28-.99,7.92-1.09,15.59-.58,32.51-.96,46.54,6.54-6.41,5.57-15.77,8.39-23.96,10.04-23.46,4.74-50.21,2.18-74.03,1.48l73.09,100.52c-9.14,6.88-7,1.64-10.42-3.21-5.37-7.61-12.65-15.13-15.71-24.3l-1.81.85c-2.21-7.57-11.21-12.57-10.15-20.87-5.41,2.04-3.83-2.15-5.05-4.18-2.41-4.02-7.02-7.85-9.34-11.91-5.65-9.88-13.78-19.19-20.42-29.58-1.02-1.6-1.93-3.42-2.19-5.32-1.34.11-1.62,1.43-2.05,2.44-3.41,8.1-5.57,20.37-8.67,29.33-7.09,20.49-15.91,45.54-34.27,58.23v-15.5c0-2.3,3.09-12.99,3.98-16.02,2.39-8.06,6.62-15.45,9.01-23.48-8.12,9.84-14.09,21.36-22.48,31.01-4.33,4.98-19.15,19.75-25,21-1.6.34-1.58.11-1.33-1.32,1.66-9.33,6.27-19.91,10.81-28.21,3.64-6.65,8.91-12.52,12-19.49-14.09,12.61-29.57,28.78-47.31,36.18-.94.39-5.57,3.01-4.66.34,2.99-8.76,10.8-17.52,15.57-25.44l19.41-22.08-28.95,18.54c-8.5,3.54-16.76,8.28-26.04,9.44,5.01-9.09,12.17-16.7,19.47-24.02l23.52-18.96c-10.21,3.29-19.61,8.55-30,11.49-8.49,2.4-17.18,3.9-25.99,4.5-1.92-1.86,8.02-10.49,9.79-11.94,2.51-2.07,5.42-3.72,7.9-5.86l17.31-10.18c-12.06,1.36-24.1,5.15-36.37,3.87-.92-.1-7.51-.69-5.62-2.86l18.62-11.89,38.37-14.12c-21.01.99-43.04,3.55-62.99-4.51,7.03-5.26,15.73-7.73,24.18-9.82l39.81-5.67c-15.42-1.4-31.56-3.66-45.98-9.53-5.67-2.31-12.59-5.26-16.02-10.47,18.91-5.75,38.05-2.55,56.99.98l-20.87-9.61c-8.56-4.44-19.75-11.7-25.63-19.37-.77-1.01-1.93-1.26-1.49-3.01h14.5c3.04,0,14.73,3.51,18.28,4.72,5.46,1.86,10.31,5.59,16.22,6.27-7.71-7.13-16.26-13.4-22.97-21.52-2.09-2.52-12.05-15.74-10.02-18.47,19.77,4.11,34.58,16.94,49.98,29l-18.51-26.98c-4.32-8.75-9.45-18.04-9.48-28.01,1.91-2.02,16.97,10.46,19.02,12.47l23.96,31.52c-1.94-7.22-5.23-14.02-7.25-21.23-.79-2.82-3.74-12.26-3.74-14.26V6c4.85,1.18,9.99,8.46,12.81,12.69,6.53,9.79,10.73,21.13,14.2,32.3,2.46,0-.01-2.94-.01-3.49,0-8.78-.81-19.53,0-28Z"/></g></svg>