<?xml version="1.0" encoding="UTF-8"?><svg id="Layer_2" xmlns="http://www.w3.org/2000/svg" viewBox="0 0 247.18 258.37"><defs><style>.cls-1{fill:#26ffbe;}</style></defs><g id="Layer_1-2"><path class="cls-1" d="M140.06,11.01c25.64,2.43,67.27,22.17,66.61,52.32-.18,8.26-6.22,20.13-10.8,26.98-5.05,7.55-22.29,22.26-21.78,30.12.1,1.62,2.54,6.37,3.96,7.07,8.55,4.16,22.81-12.47,27.43-18.58,12.58-16.65,21.29-38.66,8.58-57.91.75-.73,6.04,3.65,7.01,4.48,17.59,14.99,25.52,38.17,23.97,61-.31,4.57-2.25,9.25-2.06,14.03.21,5.06,3.38,10.6,3.95,16.11,2.85,27.36-20.22,63.06-45.35,73.41-2.3.95-16.52,4.44-16.51,5.47l12.57,20.46c-4.33,8.23-5.13-.16-10.58-.97l-1,3.01-9.51-17.97c-17.57,25.37-63.27,36.2-90.17,22.15-9.33-4.87-15.92-13.62-24.61-19.39-6.96-4.62-14.62-7.27-21.65-12.35-7.56-5.47-15.04-14.48-19.09-22.91l17.65,9.35c16.97,9.21,60.19,12.48,69.53-8.18,2.29-5.06,2.93-17.58-4.43-16.53-3.33.47-15.9,8.07-21.21,9.9-19.73,6.77-58.89,11.35-69.31-11.76-2.99-6.64-6.51-19.42-8.98-27.02C-.02,139.94-1.9,128.78,2.56,115c2.26,3.55,2.51,7.64,4.48,11.52,10.28,20.28,44.41,30.27,64.82,21.76,13.81-5.76,16.62-22.71-.25-24.33-17.58-1.68-27.9,4.34-46.77-4.23-12.2-5.54-19.48-11.65-17.51-25.98,2.16-15.66,9.37-30.33,17.33-43.67,9.38-15.74,24.56-31.21,25.42-50.08,7.84,2.83,16.13,5.34,24.51,5.98,12.32.94,26.82-2.32,38.01-1.01,10.38,1.22,19.13,23.27,19.27,32.53.15,9.79-8.95,27.3-3.82,35.03,4.04,6.09,15.51-1.99,19.01-6.05,14.65-16.99,10.28-42.3-6.98-55.47ZM91.77,47.72c5.64-5.01,3.6-23.45-.82-29.11-6.25-8.02-8.07,11.04-7.91,14.84.15,3.59,3.25,19.13,8.72,14.27ZM39.62,72.44c6.67,7.01,17.36,12.31,26.82,7.43,3.62-1.87,6.41-7.11,4.13-10.89-2.03-3.37-17.11-5.06-21.51-6.48-9.51-3.08-12.97-9.2-19.99-15.5,1.22,9.87,3.58,18.13,10.55,25.45ZM123.78,83.2c-9.29,2.1-9.28,21.81-2.16,22.83,11.88,1.69,15.03-25.74,2.16-22.83ZM115.79,141.74c3.35-3.54-.52-10.64-4.45-12.52-6.48-3.09-19.71-3.89-16.8,6.81,2.22,8.18,16.3,10.95,21.26,5.71ZM162.58,136.48c-14.69-.45-18.88,24.39-5.14,23.48,12.58-.83,16.16-23.15,5.14-23.48ZM188.37,181.31c-3.53,3.15-2.97,7.06,2.15,7.74,18.4,2.43,43.02-32.16,35.53-50.05-1.31-.97-6.06,11.29-6.82,12.67M126.3,177.24c-4.39,4.39-3.44,22.87,7.81,19.32,12.38-3.9-.23-26.9-7.81-19.32ZM97.32,234.74c6.65,6.8,29.17,1.68,32.99-7,3.65-8.31-7.62-7.18-12.73-6.72-4.67.42-20.85,5.67-21.24,10.62-.03,1.08.22,2.33.98,3.1Z"/></g></svg>