<?xml version="1.0" encoding="UTF-8"?><svg id="Layer_2" xmlns="http://www.w3.org/2000/svg" viewBox="0 0 270.33 285.6"><defs><style>.cls-1{fill:#26ffbe;}</style></defs><g id="Layer_1-2"><path class="cls-1" d="M157.46,43.61c1.27.78,3.2.09,4.37-.88,2.05-1.7,7.75-14.24,10.09-17.9,4.12-6.44,10.82-17.51,19.71-14.87,15.22,4.51-6.36,44.71-3.29,47.79,5.09.12,9.4-3.52,14.03-5.47,8.46-3.56,24.21-10.85,33.02-8.09,14.06,4.41-8.99,21.82-13.72,25.38-6.49,4.89-21.37,12.26-25.84,17.16-1.25,1.36-1.84,1.95-1.48,4.01,16.53-.11,32.92-7.22,49.46-8.04,27.18-1.35,22.98,10.33,4.84,21.84-20.36,12.93-43.79,17.32-64.66,27.34-6.15,2.95-18.39,11.27-3.14,10.94,22.35-.49,62.48-8.34,82.88.03,20.05,8.23-11.25,19.23-18.87,21.91-8.21,2.89-17.23,5.23-25.7,7.3-5.05,1.23-36.09,6.23-36.81,9.2-.04,2.22,2.35,2.56,3.95,3.03,14.99,4.45,34.48,1.89,50.29,8.71,21.57,9.31.92,17.21-11.01,19.47-21.86,4.14-44.24.8-66.22,3.28-.34,1.69.41,2.06,1.71,2.78,4.48,2.5,17.04,5.23,23.26,7.74,6.46,2.61,29.09,12.74,30.89,19.18,2.4,8.63-15.66,6.78-20.22,6.15-14.51-2.01-28.4-8.91-43-10.78l-1.62,2.39c3.65,4.77,20.48,22.57,16.84,28.4-14.87,3.8-34.35-8.25-45.38-17.84-7.84-6.81-12.53-15.51-19.04-21.96-.82-.82-.88-1.44-2.42-1.06l-23.33,54.85-10.68-6.85,5.99,1.99-.47-2.85c-2.9,1.79-4.08-.83-3.53-3.5.14-.66,1.67-.68,1.94-1.4,2.28-6.16,4.49-12.08,6.85-17.97.87-2.18,2.61-5.07,5.21-4.28l-.48-1.83-1.5-.65,3.48-6.6,3.5.08c-.14-3.01-1.88-5.4-.04-8.3.51-.8,2.04-.98,2.52-1.74.5-.79.08-4.13,1.54-5.44-1.22-1.97-1.63-.91-2.78-.87-24.35.88-37.64,3.05-60.44-8.94-4.88-2.57-18.46-9.94-8.5-14.92,5.37-2.68,27.88-2.57,28.7-3.8.06-.78.11-1.56-.15-2.32-1.35-4.02-34.29-21.6-40.87-28.15-2.65-2.63-9.13-10.69-6.83-14.38,3.4-5.47,31.98,6.52,37.22,9,4.69,2.22,19.04,11.68,22.12,11.89,3.85.27-1.63-6.39-2.5-7.51-13.19-16.96-32.25-31.69-41.46-51.54-6-12.93-3.9-20.27,11.54-13.54,14.96,6.53,26.25,22.88,38.7,30.52,1.82,1.12,4.03,2.18,6.24,2.03,2.44-2.42-18.09-33.46-20.52-37.97-4.86-9.03-10.24-19.82-13.5-29.5-2.19-6.51-5.25-13.58-2.87-20.4.45-.39,4.32-.27,5.41-.13,17.17,2.09,46.94,46.78,58.97,60.03,10.5,11.57,10.73,4.6,7.77-6.77-5.86-22.55-28.45-58.05-25.16-81.65.45-3.23,1.64-5.96,4.87-7.17,4.82-1.27,13.18,7.59,16.01,11.1,8.67,10.77,16.21,30.72,24.58,39.42,1.4,1.46,1.9,2.53,4.43,2.06.87-12.12-10.83-52.37-2.49-60.98,7.54-7.78,17.14,12.39,19.36,17.61,1.5,3.53,7.16,23.57,8.25,24.24Z"/></g></svg>