<?xml version="1.0" encoding="UTF-8"?><svg id="Layer_2" xmlns="http://www.w3.org/2000/svg" viewBox="0 0 268.14 283.06"><defs><style>.cls-1{fill:#26ffbe;}</style></defs><g id="Layer_1-2"><path class="cls-1" d="M177.47,130.11c11.53,9.32,25.76,15.19,37.74,23.73.71.5,1.7-.22,1.22,1.71l-74.17,81.32-32.79-13.76,27,18.53-22.98,24-44.02-19.52c11.69,8.84,25.44,14.87,37.71,22.75.97.63,1.79-.1,1.28,2.22-19.8,12.54-42.93,9.41-63.2-.27-2.76-1.32-14.78-9-16.19-8.79l-17.72,20.94c-6.37,1.08-6.09-7.9-4.36-11.85.18-.41,4.93-5.69,5.86-6.71.48-.53,2-1.81,3.27-3.16,1.57-1.67,3.51-3.07,4.86-5.14.81,3.32,3.01,2.91,2.51-.5-7.89-8.25-15.69-20.71-19.48-31.54-8.87-25.39-3.02-46.79,17.44-63.96l26.01,39-22.23-40.3-.3-3.66,38.04-43.03,24.49,41.99c-.04-2.84-1.52-5.39-2.52-7.96-4.33-11.13-12.32-24.53-15.52-35.5-.44-1.52-1.29-2.89-.54-4.55,21.93-25.64,45.97-49.44,70.58-72.52l2.49.58,30.04,41.96-25.45-48.36c14.65-12.29,32.74-24.01,51.93-26.18l18.52,32.56c1.18-.05.28-3.1.01-4.02-1.08-3.68-12.71-28.92-11.51-29.98,25.72-1.56,49.76,13.54,58.74,37.75,12.23,32.96-6.33,64.29-25.35,90.13-3.6,4.89-12.38,17.28-16.37,20.7-.64.55-1.04,1.41-2.06.98l-42.97-19.56Z"/></g></svg>