<?xml version="1.0" encoding="UTF-8"?><svg id="Layer_2" xmlns="http://www.w3.org/2000/svg" viewBox="0 0 450.57 239"><defs><style>.cls-1{fill:#26ffbe;}</style></defs><g id="Layer_1-2"><path class="cls-1" d="M6.45,224c-.25.39-.27,1.5-.95,2.51-2.7,4.06-7.57,4.97-4.56,12.49,4.58-5.65,9.03-11.69,13.99-17.01,8.8-9.45,14.39-16.36,28.12-17.88,34.41-3.81,62.48,17.4,94.38,25.41,17.27,4.34,36.27,6.77,54.01,4.48l-25.26-8.22c-20.08-7.85-39.5-17.87-59.75-25.25-23.29-8.49-42.19-10.65-65.98-1.53,18.11-16.48,40.29-30.86,61.98-42.51,6.83-3.67,30.55-16.45,36.58-17.41,18.87-3.02,57.72,22.62,76.08,30.79,19.91,8.87,41.27,15.52,63.35,15.13l-21.67-8.82c-7.2-3.89-14.83-7.05-22-11-26.08-14.37-49.7-40.94-82.32-31.18l30.58-11.91c27.21-3.6,48.66,18.83,70.74,31.09,19.49,10.82,40.95,19.77,63.67,19.82-.23-1.5-1.89-1.86-2.98-2.51-11.99-7.16-25.46-13.29-37.69-20.31-22.54-12.93-44.41-30.35-70.32-35.18l48.99-13.98c-42.51,6.21-83.28,20.24-122.99,35.98,13.09-10.36,25.62-21.24,36.97-33.52L244.44,0c-27.35,22.8-57.13,48.48-77.8,77.69-13.21,18.66-24.31,42.46-39.67,59.33-4.08,4.47-21.42,15.17-27.03,16.97-.51.16-1.63.27-1.48-.48,41.66-36.66,57.05-91.7,81.17-139.83l4.33-11.67c-26.28,30.17-49.29,63.3-68.68,98.32-9.3,16.81-25.51,55.82-38.91,67.09-6.41,5.39-16.08,10.61-23.23,15.77-1.9,1.37-7.14,6.33-8.2,6.81-.43.2-1.64.25-1.48-.49,18.25-21.67,35.03-46.31,45.01-72.99,6.21-16.58,9.94-34.19,16.24-50.76l20.25-46.75c-20.2,24.1-40.79,51.45-53.68,80.32-13.58,30.4-16.13,65.41-34.65,94.35-5.45,8.51-21.95,23.44-30.17,30.33,31.06-47.89,41.14-98.18,65.14-149.36,5.95-12.7,13.03-24.89,18.85-37.64-27.78,27.84-53.28,62.06-63.91,100.58-6.89,24.98-9.66,60.07-20.54,82.46-1.29,2.65-4.91,5.67-4.05,7.95,1.26-1.63,2.96-2.7,4.5-4ZM316.45,7.01c-25.37,8.58-51.4,21.57-72.91,37.58-19.27,14.35-32.64,31.95-49.06,48.94-7.79,8.06-16.27,15.39-24.03,23.46,45.72-20.45,75.31-61.88,115.68-89.8l30.31-20.18ZM362.45,12.01c-22.25,8.33-45.69,19.74-65.52,32.96-18.07,12.05-31.73,28.14-49.58,40.42l-31.89,20.6c21-4.78,41.34-12.76,59.92-23.57L362.45,12.01ZM413.45,44.01c-34.87,4.61-70.16,12.23-102.02,27.47l-37.97,21.51c33.03-4.25,62.21-20.84,92.75-32.74l47.24-16.24ZM450.28,91.16c-.39-.65-10.26-3.87-12.06-4.43-33.7-10.54-73.67-8.63-107.96-1.42-1.99.42-15.84,3.28-15.82,4.19,44.97,6.61,90.86,1.7,136.01,6.5-.18-1.4.47-3.76-.17-4.84ZM409.45,162.01c-47.2-16.31-78.78-71.53-133.99-60l12.98,4.51c40.68,24.84,67.42,50.48,117.81,56.2,1.1.12,3.42,1.15,3.2-.7ZM378.45,170.01c-55.49-5.45-86.28-72.37-144.99-62l21.67,8.81c24.06,11.83,41.99,32.57,66.65,43.35,17.31,7.57,34.96,10.98,53.92,11.18,1.32.01,2.2.88,2.75-1.34ZM252.45,197.01c-16.42-5.53-32.5-12.88-48.05-20.47-16.06-7.84-31.03-19.09-48.75-23.25-20.58-4.82-37.09.48-56.2,7.71-.26,1.68,2.37,1.03,3.51,1.02,7.84-.07,13.61-.97,21.96-.02,41.58,4.78,85.61,42.14,126.03,36.99,1.38-.18,2.98-.6,1.48-1.99ZM229.45,217.01c-36.23-13.28-67.39-36.89-106.62-41.88-23.75-3.02-45.16,1.17-66.36,11.88-.22,1.88,2.02.77,3.04.54,19.78-4.52,33.75-6.8,54.16-2.26,15.43,3.43,24.57,10.64,38.12,16.88,22.61,10.42,47.44,14.18,72.14,15.86,1.15.08,5.54.72,5.53-1.03Z"/><path class="cls-1" d="M6.45,224c8.22-6.89,24.72-21.82,30.17-30.33,18.52-28.94,21.08-63.95,34.65-94.35,12.89-28.87,33.49-56.22,53.68-80.32l-20.25,46.75c-6.3,16.58-10.03,34.19-16.24,50.76-9.98,26.67-26.76,51.32-45.01,72.99-.16.74,1.05.68,1.48.49,1.05-.48,6.3-5.44,8.2-6.81,7.15-5.16,16.82-10.38,23.23-15.77,13.41-11.27,29.61-50.28,38.91-67.09,19.39-35.03,42.4-68.16,68.68-98.32l-4.33,11.67c-24.12,48.13-39.51,103.17-81.17,139.83-.16.75.97.64,1.48.48,5.61-1.81,22.95-12.5,27.03-16.97,15.37-16.86,26.46-40.66,39.67-59.33C187.32,48.48,217.1,22.8,244.44,0l-75.02,103.47c-11.35,12.28-23.88,23.16-36.97,33.52,39.72-15.74,80.49-29.77,122.99-35.98l-48.99,13.98c25.91,4.84,47.79,22.26,70.32,35.18,12.23,7.02,25.71,13.15,37.69,20.31,1.09.65,2.75,1.01,2.98,2.51-22.72-.05-44.18-9-63.67-19.82-22.08-12.26-43.53-34.69-70.74-31.09l-30.58,11.91c32.62-9.76,56.24,16.82,82.32,31.18,7.16,3.95,14.8,7.11,22,11l21.67,8.82c-22.08.39-43.44-6.26-63.35-15.13-18.36-8.18-57.22-33.82-76.08-30.79-6.03.97-29.75,13.74-36.58,17.41-21.69,11.65-43.87,26.03-61.98,42.51,23.79-9.12,42.69-6.97,65.98,1.53,20.25,7.38,39.67,17.4,59.75,25.25l25.26,8.22c-17.74,2.3-36.74-.14-54.01-4.48-31.9-8.01-59.97-29.22-94.38-25.41-13.73,1.52-19.32,8.43-28.12,17.88-4.96,5.32-9.41,11.36-13.99,17.01-3.01-7.52,1.86-8.43,4.56-12.49.67-1.01.69-2.12.95-2.51-1.54,1.29-3.25,2.36-4.5,4-.86-2.28,2.76-5.3,4.05-7.95,10.88-22.4,13.64-57.48,20.54-82.46,10.63-38.52,36.13-72.74,63.91-100.58-5.82,12.75-12.89,24.94-18.85,37.64C47.59,125.82,37.52,176.11,6.45,224Z"/><path class="cls-1" d="M229.45,217.01c0,1.75-4.39,1.11-5.53,1.03-24.7-1.68-49.53-5.45-72.14-15.86-13.55-6.24-22.69-13.45-38.12-16.88-20.41-4.54-34.37-2.26-54.16,2.26-1.02.23-3.26,1.34-3.04-.54,21.2-10.72,42.61-14.91,66.36-11.88,39.23,5,70.39,28.6,106.62,41.88Z"/><path class="cls-1" d="M362.45,12.01l-87.07,70.41c-18.58,10.81-38.93,18.79-59.92,23.57l31.89-20.6c17.85-12.28,31.51-28.37,49.58-40.42,19.83-13.22,43.27-24.64,65.52-32.96Z"/><path class="cls-1" d="M252.45,197.01c1.5,1.39-.1,1.82-1.48,1.99-40.42,5.15-84.45-32.21-126.03-36.99-8.35-.96-14.12-.05-21.96.02-1.15,0-3.77.66-3.51-1.02,19.1-7.23,35.62-12.54,56.2-7.71,17.72,4.15,32.69,15.41,48.75,23.25,15.55,7.59,31.63,14.94,48.05,20.47Z"/><path class="cls-1" d="M409.45,162.01c.21,1.86-2.11.83-3.2.7-50.39-5.72-77.13-31.36-117.81-56.2l-12.98-4.51c55.21-11.52,86.79,43.69,133.99,60Z"/><path class="cls-1" d="M378.45,170.01c-.55,2.22-1.44,1.36-2.75,1.34-18.96-.2-36.61-3.61-53.92-11.18-24.65-10.78-42.58-31.52-66.65-43.35l-21.67-8.81c58.71-10.37,89.5,56.55,144.99,62Z"/><path class="cls-1" d="M316.45,7.01l-30.31,20.18c-40.38,27.92-69.96,69.36-115.68,89.8,7.76-8.07,16.23-15.4,24.03-23.46,16.42-16.99,29.79-34.59,49.06-48.94,21.51-16.01,47.54-29,72.91-37.58Z"/><path class="cls-1" d="M450.28,91.16c.64,1.08,0,3.44.17,4.84-45.16-4.8-91.04.1-136.01-6.5-.03-.91,13.83-3.77,15.82-4.19,34.29-7.21,74.26-9.12,107.96,1.42,1.8.56,11.67,3.78,12.06,4.43Z"/><path class="cls-1" d="M413.45,44.01l-47.24,16.24c-30.53,11.89-59.72,28.49-92.75,32.74l37.97-21.51c31.85-15.23,67.14-22.85,102.02-27.47Z"/></g></svg>