<?xml version="1.0" encoding="UTF-8"?><svg id="Layer_2" xmlns="http://www.w3.org/2000/svg" viewBox="0 0 100 100"><defs><style>.cls-1{fill:#26ffbe;}.cls-2{fill:#3a3a3a;}</style></defs><g id="Layer_1-2"><rect class="cls-1" width="100" height="100"/><path class="cls-2" d="M45.32,26.42h12.63c.84,0,1.37.89.99,1.63l-13.61,26.62c.18.87,1.4.95,1.69.11,0,0,12.12-15.13,17.85-24,1.75-2.71,4.73-4.36,7.95-4.36h10.51c.87,0,1.5.83,1.27,1.67l-.32,44.52c-.16.57-.68.96-1.27.96h-26.52c-.97,0-1.61-1.01-1.19-1.89l12.43-19.79c.46-.97-.87-1.76-1.5-.9,0,0-10.63,11.29-16.89,18.39-2.34,2.66-5.71,4.18-9.25,4.18h-7.83c-.85,0-1.48-.8-1.28-1.62l9.01-21.61c.24-1.02-1.19-1.53-1.65-.59l-14,23.07c-.22.46-.68.75-1.19.75h-10.48c-.87,0-1.5-.83-1.27-1.67L43.54,28.08l.69-1.09,1.09-.57Z"/></g></svg>