<?xml version="1.0" encoding="UTF-8"?><svg id="Layer_2" xmlns="http://www.w3.org/2000/svg" viewBox="0 0 214.47 255.35"><defs><style>.cls-1{fill:#26ffbe;}</style></defs><g id="Layer_1-2"><path class="cls-1" d="M130.47,8.67c-1.14-1.29-1.62-2.76-1.87-4.45l.88-4.23c-7.02,3.41-15.24,4.39-22.95,5.41-9.51,1.26-22.73.82-25.08,13.08-1.96,10.2,6.24,30.99,10.42,40.77,1.61,3.78,5.7,10.68,6.43,14.2.67,3.22-2.48,3.4-4.38,1.29-1.67-1.85-4.73-7.66-6.12-10.13-7.07-12.6-12.85-30.55-11.55-45.17.09-1.04,1.32-6.43,1.02-6.84-6.46,3.62-12.18,8.35-18.22,12.59-3.13,2.2-6.82,4.04-9.74,6.5-13.53,11.41-1.21,29.7,6.61,40.56,9.29,12.91,22.42,22.57,32.44,34.86,1.18,1.45,2.16,2.85,1.75,4.83-.59,2.89-3.57,1.47-5.18.4-3.67-2.43-9.65-8.45-13.07-11.69-9.66-9.13-20.53-20.98-26.86-32.71-3.84-7.12-5.76-15.1-6.66-23.12-.29-.03-.51,0-.77.13-1.91,1-6.1,7.14-7.58,9.18-3.79,5.2-7.96,11.06-11.35,16.5-7.31,11.74-6.17,19.19,3.07,29.12,8.25,8.86,20.09,18.79,30.48,24.96,6.31,3.75,16.88,8.54,22.12,13.21,2.37,2.11,3.85,6.48-.74,5.9-4.37-.55-17.83-9.39-22.01-12.27-16.05-11.06-28.77-22.98-40.14-38.78-.34-.48-1.55-2.68-1.83-2.82-.46-.23-.39.33-.46.56-1.92,6.56-3.33,11.2-4.27,18.16-.92,6.76-1.76,13.59-2.61,20.34-2.11,16.74,7.84,23.08,20.92,29.87,11.44,5.94,21.98,8.29,34.05,12.1,4.07,1.29,14.22,4.28,17.1,6.88,4.47,4.03-2.4,5.04-5.43,4.92-17.94-.72-35.7-5.97-51.1-15.17-4.59-2.74-9.21-6.92-13.66-10.06-.52-.37-3.64-2.68-3.95-2.36-.88,10.75,2.05,21.6,5.23,31.77,5,15.99,15.24,42.36,27.98,53.31,17.31,14.88,51.26,24.05,66.27,1.38,7.12-10.75,6.76-21.42,8.04-33.73.42-4.01.58-9.06,1.31-12.87.58-3.02,3.78-3.87,5.24-.91,5.29,21.84,7.32,49.7,36.63,48.45,16.16-.69,34.55-13.22,43.92-25.96,16.53-22.46,20.21-41.1,19.13-68.81-.2-5.23.32-9.57.52-14.68.09-2.1-.08-4.23-.01-6.33-.17-.2-1.43.85-1.67,1.04-17.24,13.36-36.73,29.53-58.66,34.17-3.17.67-9.64,2.08-11.29-1.63-.89-2,.94-3.45,2.54-4.28,8.1-4.22,20.03-6.4,28.84-9.83,12.34-4.81,31.95-17.28,36.03-30.49,2.85-9.21-.05-19.57-3.16-28.41-2.84-8.11-6.45-16.11-12.37-22.44-1.36,3.47-2.04,7.17-3.22,10.7-5.99,17.91-25.51,34.71-39.71,46.67-1.97,1.66-7.74,6.84-9.96,7.07-1.08.11-1.46.01-1.41-1.14.06-1.24,2.79-3.98,3.75-5.04,5.28-5.79,10.98-10.59,16.51-15.97,3.89-3.78,5.43-6.35,8.52-10.57,8.27-11.25,21.07-22.46,19.96-37.79-.5-6.95-6.34-14.55-11.48-18.95-.72-.61-4.89-4-5.54-3.36,0,.62.06,1.25-.06,1.87-4.33,22.83-14.02,40.24-30.97,56.05-1.4,1.31-5.17,4.87-7,4.75-3.04-.19-.28-3.74.54-4.9,4.62-6.51,11.66-12.66,16.85-18.79,7.61-8.98,17.25-29.56,13.18-41.19-3.57-10.2-15.97-13.35-24.33-18.47-2.69-1.64-7.89-5.01-9.88-7.27Z"/><path class="cls-1" d="M130.47,8.67c1.99,2.25,7.19,5.62,9.88,7.27,8.36,5.12,20.76,8.27,24.33,18.47,4.08,11.63-5.57,32.21-13.18,41.19-5.19,6.13-12.24,12.28-16.85,18.79-.82,1.16-3.58,4.71-.54,4.9,1.84.12,5.6-3.45,7-4.75,16.95-15.81,26.64-33.23,30.97-56.05.12-.62.05-1.25.06-1.87.64-.64,4.82,2.74,5.54,3.36,5.14,4.39,10.98,12,11.48,18.95,1.11,15.33-11.69,26.54-19.96,37.79-3.1,4.21-4.64,6.78-8.52,10.57-5.53,5.39-11.23,10.18-16.51,15.97-.96,1.05-3.69,3.79-3.75,5.04-.06,1.15.33,1.25,1.41,1.14,2.22-.23,7.99-5.41,9.96-7.07,14.2-11.96,33.73-28.76,39.71-46.67,1.18-3.53,1.86-7.23,3.22-10.7,5.92,6.33,9.53,14.33,12.37,22.44,3.1,8.85,6.01,19.2,3.16,28.41-4.09,13.21-23.7,25.69-36.03,30.49-8.82,3.44-20.74,5.62-28.84,9.83-1.6.83-3.43,2.28-2.54,4.28,1.65,3.71,8.12,2.3,11.29,1.63,21.93-4.64,41.42-20.81,58.66-34.17.24-.19,1.5-1.23,1.67-1.04-.07,2.1.1,4.23.01,6.33-.21,5.12-.73,9.46-.52,14.68,1.08,27.71-2.59,46.35-19.13,68.81-9.38,12.74-27.77,25.27-43.92,25.96-29.31,1.25-31.35-26.62-36.63-48.45-1.47-2.97-4.66-2.11-5.24.91-.73,3.81-.89,8.86-1.31,12.87-1.29,12.31-.93,22.98-8.04,33.73-15.01,22.66-48.96,13.5-66.27-1.38-12.74-10.95-22.98-37.31-27.98-53.31-3.18-10.17-6.11-21.02-5.23-31.77.31-.32,3.43,2,3.95,2.36,4.45,3.14,9.07,7.32,13.66,10.06,15.39,9.2,33.16,14.46,51.1,15.17,3.03.12,9.9-.89,5.43-4.92-2.88-2.6-13.03-5.59-17.1-6.88-12.07-3.82-22.61-6.17-34.05-12.1-13.09-6.79-23.03-13.13-20.92-29.87.85-6.75,1.69-13.58,2.61-20.34.94-6.97,2.36-11.6,4.27-18.16.07-.24,0-.79.46-.56.28.14,1.48,2.34,1.83,2.82,11.37,15.8,24.1,27.72,40.14,38.78,4.18,2.88,17.64,11.72,22.01,12.27,4.6.58,3.12-3.79.74-5.9-5.24-4.67-15.81-9.46-22.12-13.21-10.39-6.17-22.24-16.1-30.48-24.96-9.25-9.94-10.38-17.38-3.07-29.12,3.39-5.44,7.56-11.3,11.35-16.5,1.48-2.04,5.68-8.17,7.58-9.18.26-.14.49-.16.77-.13.9,8.03,2.82,16,6.66,23.12,6.33,11.73,17.2,23.58,26.86,32.71,3.42,3.23,9.4,9.25,13.07,11.69,1.61,1.07,4.59,2.49,5.18-.4.4-1.98-.57-3.38-1.75-4.83-10.02-12.3-23.15-21.95-32.44-34.86-7.82-10.86-20.14-29.15-6.61-40.56,2.92-2.46,6.61-4.31,9.74-6.5,6.05-4.24,11.77-8.97,18.22-12.59.29.41-.93,5.79-1.02,6.84-1.3,14.61,4.48,32.56,11.55,45.17,1.38,2.47,4.45,8.27,6.12,10.13,1.9,2.11,5.05,1.93,4.38-1.29-.73-3.52-4.81-10.42-6.43-14.2-4.18-9.79-12.37-30.57-10.42-40.77,2.35-12.26,15.57-11.82,25.08-13.08,7.72-1.02,15.93-2,22.95-5.41l-.88,4.23c.24,1.69.73,3.16,1.87,4.45Z"/></g></svg>