<?xml version="1.0" encoding="UTF-8"?><svg id="Layer_2" xmlns="http://www.w3.org/2000/svg" viewBox="0 0 418.65 418.65"><defs><style>.cls-1{fill:#26ffbe;}.cls-2{fill:#3a3a3a;}</style></defs><g id="Layer_1-2"><rect class="cls-1" x="0" y="0" width="418.65" height="418.65" rx="209.33" ry="209.33"/><path class="cls-2" d="M189.72,110.61h52.88c3.5.02,5.74,3.73,4.15,6.84l-56.99,111.43c.76,3.66,5.85,3.98,7.08.46,0,0,50.76-63.33,74.72-100.49,7.31-11.33,19.81-18.23,33.3-18.23h44.02c3.65,0,6.3,3.49,5.31,7l-1.34,186.38c-.67,2.38-2.84,4.03-5.31,4.03h-111.04c-4.07,0-6.74-4.25-4.97-7.91l52.04-82.84c1.95-4.04-3.66-7.39-6.29-3.76,0,0-44.5,47.26-70.69,77-9.8,11.13-23.9,17.51-38.73,17.51h-32.78c-3.56,0-6.19-3.33-5.37-6.8l37.7-90.47c1.02-4.28-4.98-6.42-6.89-2.45l-58.62,96.6c-.92,1.91-2.85,3.12-4.97,3.12h-43.88c-3.65,0-6.3-3.49-5.31-7L182.27,117.57l2.91-4.56,4.55-2.4Z"/></g></svg>