<?xml version="1.0" encoding="UTF-8"?><svg id="Layer_2" xmlns="http://www.w3.org/2000/svg" viewBox="0 0 674.22 99.77"><defs><style>.cls-1{fill:#3a3a3a;}</style></defs><g id="Layer_1-2"><path class="cls-1" d="M67.68,3.23C69.16,1.2,71.51,0,74.02,0h24.57c1.77.01,2.9,1.88,2.1,3.46l-28.6,55.92c-.15.29-.17.64-.01.93.72,1.33,2.83,1.29,3.38-.3,0,0,25.32-31.6,37.53-50.42C116.87,3.6,123.5,0,130.62,0h21.69c1.85,0,3.18,1.76,2.69,3.54v92.66c0,1.75-1.24,3.33-2.98,3.54-.13.02-.26.02-.39.02h-56.12c-2.06,0-3.4-2.15-2.51-4l26.3-41.87c.98-2.04-1.85-3.73-3.18-1.9,0,0-22.17,23.54-35.44,38.59-5.15,5.83-12.54,9.17-20.32,9.17h-16.1c-1.8,0-3.13-1.68-2.71-3.44l19.05-45.73c.52-2.17-2.52-3.24-3.48-1.24l-29.62,48.82c-.46.97-1.44,1.58-2.51,1.58H2.79c-1.77,0-3.07-1.62-2.74-3.32.03-.14.1-.28.18-.4L67.68,3.23Z"/><path class="cls-1" d="M167.32,62.27c0-5.58.97-10.67,2.9-15.27,1.93-4.59,4.66-8.53,8.18-11.79,3.52-3.26,7.77-5.8,12.76-7.6,4.98-1.8,10.52-2.71,16.62-2.71s11.7.9,16.56,2.71c4.85,1.8,8.96,4.38,12.31,7.73,3.35,3.35,5.91,7.37,7.67,12.05,1.76,4.68,2.64,9.9,2.64,15.66v5.15h-50.52c.69,3.52,1.98,6.23,3.87,8.12,1.89,1.89,4.34,2.84,7.35,2.84,4.3,0,7.43-1.93,9.41-5.8h29.77c-2.24,8.16-6.77,14.61-13.6,19.33-6.83,4.73-15.32,7.09-25.45,7.09-6.1,0-11.64-.9-16.62-2.71-4.98-1.8-9.24-4.34-12.76-7.6-3.52-3.26-6.25-7.19-8.18-11.79-1.93-4.59-2.9-9.73-2.9-15.4ZM219,56.47c-.69-3.52-1.98-6.23-3.87-8.12-1.89-1.89-4.34-2.83-7.35-2.83s-5.48.95-7.41,2.83c-1.93,1.89-3.24,4.6-3.93,8.12h22.55Z"/><path class="cls-1" d="M513.35,62.27c0-5.58.97-10.67,2.9-15.27,1.93-4.59,4.66-8.53,8.18-11.79,3.52-3.26,7.77-5.8,12.76-7.6,4.98-1.8,10.52-2.71,16.62-2.71s11.7.9,16.56,2.71c4.85,1.8,8.96,4.38,12.31,7.73,3.35,3.35,5.91,7.37,7.67,12.05,1.76,4.68,2.64,9.9,2.64,15.66v5.15h-50.52c.69,3.52,1.98,6.23,3.87,8.12,1.89,1.89,4.34,2.84,7.35,2.84,4.3,0,7.43-1.93,9.41-5.8h29.77c-2.24,8.16-6.77,14.61-13.6,19.33-6.83,4.73-15.32,7.09-25.45,7.09-6.1,0-11.64-.9-16.62-2.71-4.98-1.8-9.24-4.34-12.76-7.6-3.52-3.26-6.25-7.19-8.18-11.79-1.93-4.59-2.9-9.73-2.9-15.4ZM565.03,56.47c-.69-3.52-1.98-6.23-3.87-8.12-1.89-1.89-4.34-2.83-7.35-2.83s-5.48.95-7.41,2.83c-1.93,1.89-3.24,4.6-3.93,8.12h22.55Z"/><path class="cls-1" d="M279,72.97c1.27,0,2.38.89,2.62,2.13.38,2.01,1.16,3.53,2.33,4.57,1.55,1.38,3.65,2.06,6.31,2.06,2.15,0,3.82-.39,5.03-1.16,1.2-.77,1.8-1.85,1.8-3.22,0-1.98-1.35-3.33-4.06-4.06-2.71-.73-6.29-1.44-10.76-2.13-2.75-.43-5.73-.99-8.96-1.68-3.22-.69-6.23-1.85-9.02-3.48-2.79-1.63-5.11-3.8-6.96-6.51-1.85-2.71-2.77-6.25-2.77-10.63,0-7.3,2.83-13.12,8.51-17.46,5.67-4.34,14.3-6.51,25.9-6.51s20,2.24,25.71,6.7c4.89,3.82,7.97,9.22,9.24,16.19.35,1.9-1.1,3.66-3.03,3.66h-21.71c-1.41,0-2.65-.97-2.98-2.35-.98-4.11-3.52-6.16-7.62-6.16-2.06,0-3.5.43-4.32,1.29-.82.86-1.22,1.8-1.22,2.83,0,2.15,1.29,3.61,3.87,4.38,2.58.77,6.01,1.5,10.31,2.19,2.83.34,5.93.88,9.28,1.61,3.35.73,6.44,1.87,9.28,3.42,2.83,1.55,5.2,3.7,7.09,6.44,1.89,2.75,2.84,6.4,2.84,10.95,0,7.82-3.05,13.72-9.15,17.72-6.1,4-14.82,5.99-26.16,5.99-12.11,0-21.16-2.25-27.13-6.77-5.28-3.98-8.42-9.66-9.44-17.03-.22-1.59,1.06-3.01,2.67-3.01h22.51Z"/><path class="cls-1" d="M433.79,89.98c0-7.69,3.81-14.88,10.18-19.2l45.83-31.1c1.04-.93.21-2.64-1.16-2.39l-52.4,21.63c-1.27.23-2.44-.74-2.44-2.03v-29.27c0-1.14.93-2.07,2.07-2.07h69.15c1.14,0,2.07.93,2.07,2.07v19c0,.57-.23,1.11-.64,1.5l-51.73,36c-1.01.96-.13,2.63,1.23,2.35l48.52-18c1.28-.27,2.49.71,2.49,2.02v27.22c0,1.14-.93,2.07-2.07,2.07h-69.01c-1.14,0-2.07-.93-2.07-2.07v-7.73Z"/><path class="cls-1" d="M664.42,99.77c-7.69,0-14.88-3.81-19.2-10.18l-31.1-45.83c-.93-1.04-2.64-.21-2.39,1.16l21.63,52c.23,1.27-.74,2.44-2.03,2.44h-29.27c-1.14,0-2.07-.93-2.07-2.07V27.84c0-1.14.93-2.07,2.07-2.07h19c.57,0,1.11.23,1.5.64l36,52.45c.96,1.01,2.63.13,2.35-1.23l-18-49.73c-.27-1.28.71-2.49,2.02-2.49h27.22c1.14,0,2.07.93,2.07,2.07v70.22c0,1.14-.93,2.07-2.07,2.07h-7.73Z"/><path class="cls-1" d="M406.8,25.55h20.32v13.61c0,1.12-.91,2.03-2.03,2.03h-18.29c-1.12,0-2.03-.91-2.03-2.03v-11.58c0-1.12.91-2.03,2.03-2.03Z"/><rect class="cls-1" x="404.77" y="45.8" width="22.35" height="53.97" rx="2.03" ry="2.03"/><path class="cls-1" d="M351.07,44.34h-17.2c-1.14,0-2.07-.93-2.07-2.07v-14.51c0-1.14.93-2.07,2.07-2.07h62.17c1.14,0,2.07.93,2.07,2.07v14.51c0,1.14-.93,2.07-2.07,2.07h-17.31c-1.14,0-2.07.93-2.07,2.07v51.29c0,1.14-.93,2.07-2.07,2.07h-19.38c-1.14,0-2.07-.93-2.07-2.07v-51.29c0-1.14-.93-2.07-2.07-2.07Z"/></g></svg>